<svg width="103" height="125" viewBox="0 0 103 125" fill="none" xmlns="http://www.w3.org/2000/svg">
<path d="M22.6036 90.9845C23.8137 90.782 24.0517 90.1768 24.0885 90.3968C24.2538 90.7084 26.013 89.0569 26.013 89.0569C26.233 89.0201 26.3974 87.9748 26.8374 87.9012C27.1674 87.8459 27.5513 86.0854 27.8446 85.8101C27.8261 85.7001 27.9177 85.5717 27.8993 85.4617C27.7157 85.0401 28.0641 85.0948 28.0273 84.8748C28.0089 84.7648 28.1921 84.508 28.1553 84.288C28.0816 83.8479 28.4301 83.9027 28.2096 83.2611C27.9339 82.2894 28.5033 83.6643 27.9326 80.254L27.5096 78.4023C27.4176 77.8522 27.3444 78.0906 27.3992 77.7422C27.3623 77.5222 27.3071 77.1922 27.1051 76.6605L27.0498 76.3305C27.123 76.0921 26.2416 74.204 26.1132 74.1124L25.6359 73.2875C25.6175 73.1775 23.2503 70.5202 23.2503 70.5202C23.1951 70.1902 22.645 70.2823 22.6814 69.8238C22.7362 69.4754 22.9378 69.3285 22.901 69.1085C22.9926 68.9801 23.011 69.0901 23.3958 68.6865C24.3486 67.6223 23.8722 68.1544 25.4666 66.8697C25.9799 66.5577 26.9147 66.062 26.8963 65.952C26.9879 65.8235 27.8496 65.5663 28.0696 65.5294C28.8581 65.5106 29.6465 65.4917 29.8481 65.3449C30.2145 64.8312 29.7377 64.6849 29.2424 64.4285C28.9856 64.2453 27.4818 64.0446 26.6018 64.1918C24.1816 64.5968 20.039 66.8733 20.0574 66.9833C20.1858 67.0749 19.8373 67.0201 19.6357 67.167C19.4341 67.3138 18.7552 66.6358 17.251 65.7566C14.1326 64.0167 11.4174 61.9831 11.5459 62.0747C11.509 61.8546 11.1965 60.6629 11.5081 60.4977C11.5997 60.3693 11.4161 59.9477 11.6177 59.8008C11.8009 59.544 11.6725 59.4524 11.8189 58.9756C11.8189 58.9756 12.6608 56.5729 12.8624 56.4261C13.064 56.2792 12.954 56.2976 13.1188 55.9308C13.5036 55.5271 13.2836 55.5639 13.3936 55.5455C13.5036 55.5271 13.4484 55.1971 13.6684 55.1603C13.76 55.0319 14.1264 54.5182 14.1996 54.2798C14.1812 54.1698 14.2912 54.1513 14.4012 54.1329C14.6212 54.0961 14.5476 53.6561 14.6576 53.6377C14.8776 53.6009 15.7204 52.5551 15.922 52.4083C17.5165 51.1237 15.7931 51.6382 18.4697 50.738C19.0013 50.5359 20.3219 50.9934 20.5787 51.1766C21.4777 51.8178 21.0192 51.7815 21.3129 52.1847C21.5881 52.4779 21.607 53.2664 21.7906 53.688C21.9559 53.9996 22.0111 54.3296 22.1579 54.5312C22.2863 54.6228 22.2868 55.3013 22.6352 55.3561C22.9652 55.3009 23.0389 55.7409 23.5337 55.3188C24.4317 54.6031 24.1933 54.5299 24.2481 54.1815C24.1376 53.5214 23.844 53.1182 23.8619 52.5498C23.8799 51.9813 23.4394 51.3765 23.1089 50.7532C22.9253 50.3316 22.9437 50.4416 22.6685 50.1484C21.5307 48.7556 21.7511 49.3972 21.4575 48.994C21.2738 48.5724 21.0722 48.7192 20.797 48.426C20.6501 48.2244 20.5585 48.3528 20.5401 48.2428C20.5217 48.1328 18.2654 46.814 15.3504 47.6411L14.1771 48.0636C13.8655 48.2288 13.9939 48.3204 13.5355 48.2841C12.9486 48.1561 13.0223 48.5961 12.5638 48.5598C12.2154 48.505 11.9222 48.7802 11.6838 48.707C11.4637 48.7438 11.4821 48.8539 11.3721 48.8723C11.1337 48.7991 11.3174 49.2207 10.7305 49.0927C10.4921 49.0195 10.6573 49.3312 10.4373 49.368C10.1073 49.4232 8.22049 52.34 8.23889 52.45C8.23889 52.45 7.85453 53.5321 7.74452 53.5505C7.63452 53.5689 7.68974 53.899 7.57973 53.9174C7.35972 53.9542 7.08492 54.3395 7.12174 54.5595L6.95695 54.9263C6.86535 55.0547 6.82897 55.5132 6.62737 55.66C6.42576 55.8068 6.37142 56.8337 6.37142 56.8337C6.18822 57.0906 6.57437 58.7223 6.50118 58.9607C6.31798 59.2176 6.8321 60.2624 6.99733 60.574C8.4665 63.947 17.6565 68.8553 17.7117 69.1853L17.5285 69.4421C14.8528 71.6993 14.0477 74.322 13.7177 74.3772C13.6077 74.3956 13.2597 75.0193 13.2781 75.1293L13.1865 75.2577C12.7833 75.5514 12.6005 76.4867 12.4541 76.9636C12.0882 78.1557 11.8322 79.3294 11.7047 80.5947C11.3765 83.3638 11.8551 86.224 13.8002 88.3865C14.6444 89.3761 15.8002 90.2005 17.0107 90.6765C18.3312 91.134 19.5598 91.0416 20.8251 91.1691C21.8704 91.3334 21.6135 91.1502 22.6036 90.9845ZM19.0075 87.7413C18.2374 87.8702 17.8153 87.3753 17.6506 87.7422C17.6874 87.9622 17.6506 87.7422 17.4305 87.779C17.1005 87.8342 16.4036 87.7247 16.4952 87.5962C16.5684 87.3578 15.4683 87.5419 14.8806 86.057C14.5865 84.9753 14.8617 85.2685 14.7513 84.6085C14.7513 84.6085 14.6404 83.27 14.842 83.1232C14.8236 83.0131 14.7683 82.6831 14.8599 82.5547C14.9515 82.4263 15.3355 80.6657 15.6834 80.042C15.8666 79.7852 16.1226 78.6115 16.3242 78.4646C17.295 76.832 17.405 76.8136 17.4598 76.4652C17.643 76.2083 18.1926 75.4378 18.1742 75.3278C18.1557 75.2178 18.2658 75.1994 18.2473 75.0894C18.4674 75.0526 18.8154 74.4289 18.7969 74.3189C18.7601 74.0989 19.0902 74.0436 19.0717 73.9336C19.0533 73.8236 19.3465 73.5484 19.8045 72.9063C20.391 72.3558 20.1705 71.7141 20.7026 72.1906L20.9778 72.4838C20.9962 72.5938 21.822 73.4734 22.1161 74.5551L22.5386 75.7284C23.0343 76.6632 24.1564 82.0168 23.7536 82.9889C23.5888 83.3558 23.6261 84.2543 23.4429 84.5111L23.3513 84.6395C23.4065 84.9695 22.1789 86.419 21.6288 86.511C21.5188 86.5294 21.244 86.9147 21.244 86.9147C21.244 86.9147 20.7492 87.3367 20.6208 87.2451C20.6208 87.2451 20.5108 87.2635 19.9976 87.5756C19.5943 87.8693 19.7775 87.6124 19.0075 87.7413ZM40.0475 86.3691C40.5975 86.2771 41.258 86.8451 42.3577 85.9825C42.8709 85.6704 44.5942 85.1559 44.4088 82.0204C44.372 81.8004 44.61 81.1951 44.3715 81.1219C44.2431 81.0303 44.2431 81.0303 44.2063 80.8103C44.2974 80.0034 43.8942 80.2971 43.8579 80.7555C43.8947 80.9755 43.3639 82.5345 42.8143 83.305C42.6495 83.6719 42.6495 83.6719 42.4111 83.5987C41.6406 83.0491 41.7502 82.3522 40.906 81.3626C40.4656 80.7578 40.5572 80.6293 40.3371 80.6662C40.2087 80.5746 40.2635 80.2261 40.1351 80.1345C39.9883 79.9329 40.0426 78.906 39.9694 79.1444C39.8778 79.2729 39.7494 79.1813 39.7126 78.9612L39.6026 78.9797C39.3825 79.0165 39.3821 78.338 39.3637 78.228C39.4737 78.2096 39.4917 77.6411 39.1432 77.5864C38.9048 77.5132 38.9048 77.5132 38.9964 77.3847C39.088 77.2563 39.0696 77.1463 38.9412 77.0547C38.6843 76.8715 38.8123 76.2847 38.5555 76.1015C38.1702 75.8267 38.5182 75.203 38.1329 74.9282C37.9861 74.7266 37.6929 75.0018 37.6556 74.1033C37.6004 73.7733 37.4352 73.4617 37.38 73.1317C37.3247 72.8016 37.0311 72.3984 37.1043 72.16C37.0859 72.05 37.0674 71.94 36.9574 71.9584C36.8106 71.7568 36.6454 71.4452 36.627 71.3352C36.737 71.3167 36.7186 71.2067 36.5901 71.1151C36.4433 70.9135 36.7549 70.7483 36.5349 70.7851C36.2049 70.8403 36.2049 70.8403 36.1865 70.7303C36.1681 70.6203 36.1681 70.6203 36.2781 70.6019C36.3881 70.5835 36.3881 70.5835 36.3513 70.3635C36.3688 69.1166 35.6535 68.897 35.9467 68.6218C35.9467 68.6218 35.8915 68.2917 35.7815 68.3101C35.6715 68.3285 35.6531 68.2185 35.6347 68.1085C35.5978 67.8885 35.5978 67.8885 35.7078 67.8701C36.0379 67.8149 35.5601 66.3116 35.5233 66.0916C35.3581 65.7799 35.1196 65.7067 35.1928 65.4683C35.2844 65.3399 35.0824 64.8083 35.1556 64.5698C35.2288 64.3314 35.1735 64.0014 35.0635 64.0198C35.0451 63.9098 34.9347 63.2497 35.0447 63.2313C35.2463 63.0845 34.9158 62.4613 35.0074 62.3328L35.1174 62.3144C35.0806 62.0944 35.0438 61.8744 35.117 61.636C34.6401 61.4896 34.8233 61.2328 34.7681 60.9027C34.7129 60.5727 34.5292 60.1511 34.4556 59.711C34.4188 59.491 34.6567 58.8858 34.3083 58.831C34.0699 58.7578 34.0699 58.7578 33.9962 58.3178C34.0326 57.8593 34.0326 57.8593 33.7942 57.7861L33.6842 57.8045C33.8674 57.5477 33.9406 57.3093 34.0506 57.2909L34.1785 56.704L33.9024 55.0539C33.7188 54.6322 33.8467 54.0454 33.5715 53.7522L33.1862 53.4774C33.021 53.1657 32.9474 52.7257 33.0206 52.4873C33.2401 51.772 32.9824 50.2319 32.7624 50.2687C32.2123 50.3607 32.5967 49.2786 32.5599 49.0586C32.6878 48.4717 32.3574 47.8485 32.3753 47.2801C32.4301 46.9316 32.6865 46.4364 32.3197 46.2716C32.1912 46.18 32.1724 45.3915 32.2824 45.3731C32.3924 45.3547 32.4288 44.8962 32.392 44.6762C32.0615 44.053 32.2047 38.8269 32.0943 38.1668C32.1491 37.8184 32.0382 36.4799 32.203 36.113C32.3678 35.7462 33.3578 35.5805 33.3394 35.4705C33.5226 35.2137 34.5495 35.268 34.7511 35.1212C35.2828 34.9191 36.7308 34.1114 37.2445 34.4778C37.5013 34.661 37.7214 34.6241 37.6845 34.4041C37.6477 34.1841 38.143 34.4405 38.2346 34.3121C38.3262 34.1837 38.9862 34.0732 39.0963 34.0548C39.2431 34.2564 39.2063 34.0364 39.6647 34.0728C40.2332 34.0907 40.7096 33.5586 40.8564 33.7602C40.8564 33.7602 41.2416 34.035 41.4248 33.7782C41.5164 33.6498 41.5533 33.8698 42.0665 33.5577C42.3781 33.3925 42.5981 33.3557 42.8366 33.4289C43.295 33.4653 43.5698 33.08 44.2667 33.1896C44.3767 33.1712 44.4867 33.1527 44.4683 33.0427C44.6331 32.6759 45.7516 32.6018 45.9716 32.565C46.7232 32.3261 47.3833 32.2157 48.0065 31.8852C48.4281 31.7015 49.2898 31.4443 48.8677 30.9494C48.8309 30.7294 48.7025 30.6378 48.6657 30.4178C48.5552 29.7578 48.7748 29.0425 48.3711 28.6577C47.9675 28.2729 47.0874 28.4201 46.4089 28.4206C46.0605 28.3658 45.8037 28.1826 45.4552 28.1278C44.8868 28.1099 43.0898 28.1844 41.6597 28.4237C40.2112 28.553 39.7896 28.7367 39.6611 28.6451C39.4043 28.4619 32.8038 29.5664 32.767 29.3464C32.454 27.4762 33.4068 26.4121 32.7463 25.8441C32.3427 25.4593 31.811 25.6613 31.7926 25.5513C31.6642 25.4597 30.4541 25.6622 29.6656 25.6811C28.9872 25.6815 29.244 25.8647 28.804 25.9383C28.4739 25.9936 28.2907 26.2504 28.0707 26.2872C27.9607 26.3056 27.9607 26.3056 27.9791 26.4157C27.9975 26.5257 27.9975 26.5257 27.8691 26.4341C27.5023 26.2693 26.9711 27.1498 26.9347 27.6082C26.8436 28.4151 26.4583 28.1403 26.5135 28.4703C26.5503 28.6904 26.3671 28.9472 26.2571 28.9656C26.2387 28.8556 25.8539 29.2592 26.0192 29.5709C26.1844 29.8825 26.038 30.3593 26.0016 30.8178C25.9653 31.2762 25.47 31.0198 25.25 31.0567C24.92 31.1119 24.2783 31.3323 24.1499 31.2408C24.1131 31.0207 22.7198 31.4801 21.9313 31.4989C21.3629 31.481 21.5097 31.6826 21.0512 31.6462L19.9327 31.7203C18.8327 31.9044 17.3473 31.8137 16.8714 33.0242C16.7434 33.6111 16.8354 34.1611 16.9652 36.2881C16.9472 36.8566 17.2225 37.1498 17.9009 37.1493C18.1209 37.1125 18.3226 36.9657 18.6526 36.9104C18.8726 36.8736 19.5879 37.0932 19.6427 36.7448C19.7159 36.5063 20.2291 36.1943 20.1559 36.4327C20.0827 36.6711 20.4311 36.7259 20.4127 36.6159C20.4859 36.3775 20.8896 36.7623 21.1828 36.487C21.2744 36.3586 21.3844 36.3402 21.5128 36.4318C21.7512 36.505 22.1913 36.4314 22.1729 36.3213C22.1545 36.2113 22.7229 36.2293 23.3098 36.3573C23.6582 36.4121 23.7682 36.3936 23.7498 36.2836C23.823 36.0452 23.8414 36.1552 24.3914 36.0632C25.3999 36.0075 25.3267 36.2459 25.3456 37.0344C25.3092 37.4928 25.3829 37.9329 25.3465 38.3913C25.3285 38.9598 25.3106 39.5282 25.4026 40.0783C25.4947 40.6283 25.3299 40.9952 25.2019 41.582C25.0928 42.9574 25.4237 44.2591 25.4062 45.506C25.3155 46.9913 25.5364 48.3114 25.5557 49.7783C25.5377 50.3468 25.4098 50.9337 25.3918 51.5021C25.5207 52.2722 25.8695 53.0054 25.87 53.6839C26.0541 54.784 26.0181 55.9209 26.3122 57.0026C26.4595 57.8826 26.6252 58.8727 26.9925 59.716L27.1214 60.486C27.3423 61.8061 27.7271 61.4025 27.5623 61.7693C27.4891 62.0077 27.5811 62.5578 27.7096 62.6494C27.8196 62.631 27.838 62.741 27.7648 62.9794C27.8568 63.5294 28.1684 63.3642 27.9852 63.621C27.7652 63.6579 28.3718 65.9312 28.5919 65.8944C28.7019 65.876 28.7571 66.206 28.5555 66.3529L28.6107 66.6829C28.7759 66.9945 29.4194 69.4879 29.5662 69.6895C29.7499 70.1111 29.9524 71.3212 30.0992 71.5228C30.2276 71.6144 30.669 73.5762 30.9258 73.7594L31.1463 74.401L31.1831 74.621C31.3299 74.8226 31.4404 75.4827 31.6788 75.5559C31.9172 75.6291 31.5876 76.3628 31.8993 76.1975C32.1009 76.0507 32.1009 76.0507 32.1377 76.2707C32.1929 76.6007 32.2666 77.0408 32.505 77.114C32.6334 77.2056 32.6702 77.4256 32.5602 77.444C32.4502 77.4624 32.4686 77.5724 32.597 77.664C32.8539 77.8472 32.8543 78.5257 33.0743 78.4889C33.4043 78.4336 33.2032 79.2589 33.4232 79.2221C33.6432 79.1853 33.6805 80.0838 33.9189 80.1569C34.1573 80.2301 34.323 81.2202 35.0387 82.1182C35.314 82.4115 35.2776 82.8699 36.0297 83.3095C36.1581 83.4011 36.2134 83.7311 36.415 83.5843C36.415 83.5843 36.525 83.5659 36.5434 83.6759C36.4702 83.9143 36.6538 84.3359 36.7639 84.3175C36.9839 84.2807 37.2407 84.4639 37.2591 84.5739C37.3328 85.014 37.7916 85.7288 38.0117 85.692C38.0117 85.692 38.2501 85.7652 38.5069 85.9484C39.1306 86.2964 39.4422 86.1311 39.6991 86.3143C39.8275 86.4059 39.9375 86.3875 40.0475 86.3691ZM32.5204 44.7678C32.4288 44.8962 32.6672 44.9694 32.6304 44.7494C32.612 44.6394 32.502 44.6578 32.5204 44.7678ZM56.3699 55.026C56.0214 54.9713 55.7466 55.3565 55.6918 55.705C55.0875 56.8239 53.7691 59.7587 52.9079 60.6944C52.6331 61.0797 52.3767 61.5749 51.9919 61.9786C51.3507 62.8775 50.7279 63.8864 49.9583 64.6938C49.2803 65.3727 49.0239 65.8679 49.0239 65.8679C48.9139 65.8863 49.0423 65.9779 48.8223 66.0148C48.7123 66.0332 47.9795 67.0605 47.8695 67.0789L47.3747 67.501C47.3747 67.501 47.2647 67.5194 46.8615 67.8131C45.2302 68.8777 44.4965 68.5481 44.1481 68.4933C43.6896 68.4569 43.4144 68.1637 43.0655 67.4305C42.8818 67.0089 42.5505 65.0287 42.6237 64.7903C42.8069 64.5334 42.3116 64.277 43.0264 63.8182C43.5397 63.5061 43.4112 63.4145 43.6313 63.3777C43.8513 63.3409 44.0161 62.974 44.1261 62.9556C44.2361 62.9372 44.9509 62.4783 45.0425 62.3499C45.1341 62.2215 45.2441 62.2031 45.5557 62.0378L45.849 61.7626C45.9406 61.6342 46.1238 61.3773 46.2338 61.3589C46.4538 61.3221 46.3986 60.9921 46.6186 60.9553C46.6186 60.9553 47.3882 60.1479 47.5714 59.8911C48.011 59.139 48.2126 58.9922 48.1942 58.8822C48.1758 58.7721 49.1102 57.598 49.0734 57.378C49.0549 57.2679 49.275 57.2311 49.2565 57.1211C49.2381 57.0111 49.3297 56.8827 49.4397 56.8643C49.6229 56.6075 49.5493 56.1674 49.6409 56.039L49.8241 55.7822C49.9157 55.6537 49.7873 55.5621 49.8789 55.4337C49.9521 55.1953 49.8237 55.1037 50.0253 54.9569C50.1353 54.9385 50.0069 54.8469 50.1901 54.59C50.1532 54.37 50.0976 53.3615 49.6939 52.9767C49.3818 52.4635 49.4919 52.4451 49.2534 52.3719C48.905 52.3171 49.125 52.2803 48.7766 52.2255L48.4097 52.0607C48.1713 51.9875 48.1897 52.0975 47.8229 51.9327C47.566 51.7495 47.456 51.768 46.906 51.86L46.1543 52.0989C45.8243 52.1541 45.8059 52.0441 45.8059 52.0441L45.3659 52.1177C43.6609 52.7423 44.0646 53.1271 43.6246 53.2007C43.4046 53.2376 43.1298 53.6228 42.9466 53.8797C42.9834 54.0997 42.7086 54.4849 42.4886 54.5217C42.3785 54.5402 38.8246 59.6585 39.3961 64.4257C39.8016 67.5243 41.1226 68.6603 42.2052 69.7232C42.462 69.9063 43.2509 70.566 43.3609 70.5475C43.4709 70.5291 43.9662 70.7855 44.2046 70.8587C44.4246 70.8219 44.333 70.9503 44.5531 70.9135L44.6815 71.0051C44.9199 71.0783 46.1484 70.9858 46.4784 70.9306C46.9917 70.6185 47.5417 70.5265 48.1649 70.196C48.5682 69.9023 48.8066 69.9755 48.8982 69.8471L48.9898 69.7187C49.2098 69.6819 49.4846 69.2966 49.4662 69.1866L49.5762 69.1682C50.6395 68.7641 50.5658 68.3241 50.8774 68.1588C51.1891 67.9936 51.4639 67.6083 51.4455 67.4983C51.4086 67.2783 51.9951 66.7278 52.0498 66.3794C53.4054 64.3431 54.2114 63.0773 54.6326 62.2152L55.0722 61.4631C55.4202 60.8394 57.6536 55.2636 56.3699 55.026ZM42.8599 61.4712C42.8415 61.3611 42.9515 61.3427 43.0062 60.9943C43.061 60.6459 43.2626 60.499 43.2442 60.389L43.299 60.0406C43.5738 59.6553 43.4818 59.1053 43.7934 58.9401C43.9034 58.9216 43.995 58.7932 44.0682 58.5548C44.0314 58.3348 44.2146 58.078 44.2146 58.078C44.4346 58.0411 45.1121 56.6838 45.1853 56.4453C45.2217 55.9869 45.3869 56.2985 45.4233 55.8401C45.4781 55.4916 45.8265 55.5464 45.8081 55.4364C45.7897 55.3264 45.8813 55.198 46.1561 54.8127C46.4125 54.3175 46.6509 54.3907 46.7425 54.2622L46.981 54.3354C47.3294 54.3902 47.3662 54.6102 47.6046 54.6834L47.8431 54.7566L47.5687 55.8203C47.2028 57.0125 44.3443 60.2049 44.1427 60.3518L43.9595 60.6086C43.9779 60.7186 43.5015 61.2507 43.0799 61.4343L42.8967 61.6912L42.8599 61.4712ZM65.3574 77.6101C65.6875 77.5549 65.8707 77.298 66.1823 77.1328C67.2087 76.5087 67.3555 76.7103 67.5572 76.5634C68.052 76.1414 67.4099 75.6834 67.5747 75.3165C67.5563 75.2065 67.6663 75.1881 67.6479 75.0781C67.5006 74.198 67.537 73.7396 67.5186 73.6296C67.3901 73.538 67.5549 73.1711 67.4997 72.8411C67.3345 72.5295 67.5545 72.4927 67.4261 72.4011C67.2976 72.3095 67.4077 72.2911 67.3156 71.741C67.2052 71.081 67.352 71.2826 67.2047 70.4025C67.1311 69.9625 67.0758 69.6324 67.1858 69.614C67.149 69.394 67.0206 69.3024 67.1122 69.174L66.9833 68.4039C67.0749 68.2755 67.0197 67.9455 66.9456 66.827C66.8904 66.497 66.6502 63.7099 66.7418 63.5815L66.6852 61.2161C66.6116 60.7761 66.8132 60.6292 66.7396 60.1892C66.7759 59.7308 66.8675 59.6023 66.8307 59.3823L66.8123 59.2723C66.9039 59.1439 66.9403 58.6855 66.8119 58.5939C66.8119 58.5939 66.9951 58.337 66.9767 58.227C66.9767 58.227 67.0862 57.5301 67.0494 57.3101C67.1226 57.0717 67.4149 55.4395 67.3965 55.3295C67.3781 55.2195 67.6897 55.0543 67.5613 54.9627C67.4329 54.8711 67.7261 54.5958 67.6161 54.6142C67.6161 54.6142 67.7809 54.2474 67.7624 54.1374C67.744 54.0274 67.854 54.009 67.9825 54.1006C68.0009 54.2106 68.1845 54.6322 68.0745 54.6506C67.9645 54.669 68.9038 60.9579 70.2796 61.7455C70.5364 61.9287 71.2894 63.7252 73.5444 63.0086C74.7361 62.6961 75.4873 61.7788 75.3404 61.5771C75.322 61.4671 75.432 61.4487 75.432 61.4487C75.3952 61.2287 75.5784 60.9719 75.45 60.8803C75.67 60.8435 75.578 60.2934 75.4123 59.3033L75.3934 58.5149C75.265 58.4233 75.1914 57.9832 75.1909 57.3048C75.2089 56.7363 75.1357 56.9747 75.1537 56.4063C75.2448 55.5994 75.098 55.3978 75.1896 55.2694C75.2812 55.141 75.2808 54.4625 75.1155 54.1509C75.0787 53.9309 75.3171 54.0041 75.2803 53.784C75.2803 53.784 75.7365 50.4281 75.8097 50.1897C75.9013 50.0613 75.7729 49.9697 75.8645 49.8412C75.8645 49.8412 75.8093 49.5112 75.9193 49.4928C76.0293 49.4744 75.9372 48.9244 76.1748 47.6406C76.2296 47.2922 76.596 46.7785 76.5407 46.4485L76.8155 46.0632C77.0719 45.568 77.0351 45.348 77.2551 45.3111C77.3651 45.2927 77.3099 44.9627 77.5115 44.8159C77.7131 44.669 77.5847 44.5774 77.6763 44.449C77.8779 44.3022 77.6579 44.339 77.6395 44.229L77.7495 44.2106C77.8779 44.3022 77.8595 44.1922 77.9511 44.0638C78.2443 43.7885 78.2627 43.8985 78.3543 43.7701C78.4459 43.6417 78.4459 43.6417 78.5559 43.6233C78.5559 43.6233 78.648 44.1733 78.5748 44.4118C78.5568 44.9802 78.5568 44.9802 78.612 45.3102C78.5388 45.5487 78.5388 45.5487 78.6489 45.5303C78.7589 45.5119 78.7773 45.6219 78.6673 45.6403C78.4657 45.7871 78.4486 47.7125 78.4486 47.7125L78.4306 48.2809C78.4674 48.5009 78.3206 48.2993 78.4127 48.8494C78.5231 49.5094 78.2479 49.2162 78.3031 49.5462C78.3031 49.5462 78.3951 50.0963 78.3035 50.2247C78.2119 50.3531 78.4688 50.5363 78.3588 50.5547C78.2488 50.5731 78.2672 50.6832 78.2856 50.7932C78.3224 51.0132 78.1585 52.737 78.3421 53.1586C78.3421 53.1586 78.3974 53.4886 78.5074 53.4702C78.2874 53.507 78.8239 60.768 79.7233 62.0877C79.7417 62.1977 79.8701 62.2893 79.8885 62.3993C80.0353 62.6009 79.9437 62.7293 79.9806 62.9494C80.0722 62.8209 80.0538 62.7109 80.0353 62.6009C80.4399 64.3427 81.0268 64.4706 81.1004 64.9107C81.1188 65.0207 81.3388 64.9839 81.2472 65.1123C81.2472 65.1123 82.2566 66.4135 82.385 66.5051C82.4034 66.6151 82.5319 66.7067 82.5319 66.7067L82.5503 66.8167C82.6603 66.7983 82.6603 66.7983 82.8255 67.1099L83.2108 67.3847L83.6144 67.7696C83.6144 67.7696 83.8713 67.9527 83.8897 68.0628C83.9081 68.1728 83.9081 68.1728 84.2933 68.4476C84.6786 68.7224 85.3207 69.1804 85.6691 69.2351C85.9075 69.3083 86.0175 69.2899 86.1644 69.4915C86.2928 69.5831 86.4028 69.5647 86.4028 69.5647L86.5128 69.5463C86.6412 69.6379 87.0997 69.6743 87.3197 69.6375C87.5213 69.4906 87.6681 69.6923 87.8881 69.6554C88.6582 69.5266 90.2163 68.7004 89.9595 68.5172C89.831 68.4256 90.0511 68.3888 90.0695 68.4988C90.0879 68.6088 90.1795 68.4804 90.2711 68.352C90.2527 68.2419 90.2342 68.1319 90.4543 68.0951C90.5643 68.0767 90.5459 67.9667 90.5275 67.8567C90.509 67.7467 90.6006 67.6183 90.6922 67.4898C90.967 67.1046 91.1678 65.6008 91.3326 65.234C91.5521 64.5187 91.9185 64.005 92.2665 63.3814C92.2665 63.3814 93.9665 55.2937 93.984 54.0468C94.002 53.4783 93.4511 52.2135 92.663 52.9108C92.3698 53.186 92.4066 53.406 91.8948 55.7535C89.7192 65.7301 89.224 65.4738 88.7116 67.1427C88.6385 67.3812 88.5841 68.4081 88.0704 68.0417C87.6852 67.7669 87.502 68.0237 87.4836 67.9137C87.4652 67.8037 87.4468 67.6937 87.3183 67.6021C86.9515 67.4373 87.1531 67.2905 86.9331 67.3273C86.8231 67.3457 86.6763 67.1441 86.6763 67.1441C86.7679 67.0157 86.6026 66.7041 86.4926 66.7225C86.2726 66.7593 86.0521 66.1176 85.9237 66.026L85.8869 65.806C85.8685 65.696 85.4096 64.9812 85.1896 65.018C85.0612 64.9264 85.0612 64.9264 85.1528 64.798C85.0428 64.8164 85.0607 64.2479 84.8407 64.2847C84.6023 64.2116 84.8223 64.1747 84.6571 63.8631L84.3818 63.5699L84.3634 63.4599C84.455 63.3315 84.2714 62.9099 84.1429 62.8183L84.1245 62.7083C84.3077 62.4514 84.0141 62.0482 83.8857 61.9566C83.5004 61.6818 83.3715 60.9117 83.2063 60.6001L83.1695 60.3801C83.2611 60.2517 83.1327 60.1601 83.0227 60.1785C82.9126 60.1969 82.8942 60.0869 83.0042 60.0685C83.0958 59.9401 83.059 59.7201 83.0406 59.61C82.9306 59.6285 82.5813 58.2167 82.4529 58.1251C82.306 57.9235 82.3976 57.7951 82.3792 57.6851C82.2508 57.5935 82.324 57.3551 82.2688 57.0251C82.0851 56.6034 82.3051 56.5666 82.0667 56.4934L82.0299 56.2734C82.1031 56.035 81.9379 55.7234 82.011 55.4849C82.0106 54.8065 81.809 54.9533 81.8822 54.7149C81.9554 54.4765 81.9554 54.4765 81.8454 54.4949C81.7353 54.5133 81.5885 54.3117 81.8085 54.2748C82.267 54.3112 81.7888 52.1294 81.8804 52.001C81.972 51.8726 81.8059 50.2041 81.9159 50.1857C82.0259 50.1673 81.7502 49.1956 81.8234 48.9572C81.8966 48.7187 81.7682 48.6271 81.8413 48.3887C81.9329 48.2603 81.9145 48.1503 81.8961 48.0403C81.8773 47.2518 81.8589 47.1418 81.7489 47.1602C81.6388 47.1786 81.7304 47.0502 81.8405 47.0318C81.9505 47.0134 81.9321 46.9034 81.8952 46.6833C81.7848 46.0233 82.0228 45.418 82.1139 44.6111C82.1498 43.4742 81.9298 43.5111 82.0214 43.3826C82.1314 43.3642 82.1494 42.7958 81.8741 42.5026C81.7457 42.411 81.7089 42.1909 81.7089 42.1909C81.8553 41.7141 80.9016 41.4213 80.6816 41.4582C79.8931 41.477 79.0498 41.8443 78.4082 42.0648L78.0782 42.12C78.005 42.3584 77.7481 42.1752 77.0701 42.8541C76.5021 43.5146 75.7141 44.2119 75.4029 45.0556C75.2197 45.3125 74.9449 45.6977 74.9086 46.1562C74.7254 46.413 74.6338 46.5414 74.5606 46.7799C74.0294 47.6604 72.7313 53.419 72.9885 54.2806C73.1354 54.4823 72.9338 54.6291 72.9706 54.8491C73.0258 55.1791 72.7326 55.4544 72.8794 55.656C73.0447 55.9676 72.8071 57.2513 72.8071 57.2513L72.8439 57.4713C72.7339 57.4898 72.8076 57.9298 72.8628 58.2598C72.918 58.5898 72.7348 58.8467 72.7716 59.0667C72.8085 59.2867 72.6069 59.4335 72.6253 59.5435L72.5884 59.3235C72.6432 58.9751 72.3316 59.1403 72.1291 57.9302C72.0739 57.6002 72.2943 58.2419 71.5589 55.1984C71.522 54.9784 71.3748 54.0983 71.2648 54.1167C71.2648 54.1167 71.2464 54.0067 71.338 53.8783C71.4296 53.7499 71.1166 51.8798 71.1166 51.8798C70.8414 51.5865 70.9693 50.9997 70.8409 50.9081C70.6025 50.8349 70.9325 50.7797 70.7857 50.5781C70.5473 50.5049 70.8589 50.3396 70.272 50.2117C69.5567 49.9921 69.6304 50.4321 69.2819 50.3773C69.0619 50.4142 68.8603 50.561 68.7503 50.5794C68.6403 50.5978 67.4118 50.6903 66.8438 51.3508L65.8362 52.7634C65.8546 52.8734 65.8914 53.0934 65.7814 53.1118C65.5798 53.2587 65.525 53.6071 65.4154 54.304C65.1043 55.1477 65.1959 55.0192 65.1227 55.2577C64.9211 55.4045 65.1779 55.5877 65.0315 56.0645L65.0684 56.2846C65.0684 56.2846 65.0868 56.3946 64.9768 56.413L64.8852 56.5414C64.8852 56.5414 64.9036 56.6514 64.7936 56.6698C64.812 56.7798 64.7204 56.9082 64.7388 57.0183C64.794 57.3483 64.684 57.3667 64.666 57.9351C64.6481 58.5036 64.3364 58.6688 64.3917 58.9989C64.5385 59.2005 64.3185 59.2373 64.3737 59.5673C64.3921 59.6773 64.3921 59.6773 64.3005 59.8057C64.3005 59.8057 64.2826 60.3742 64.411 60.4658C64.411 60.4658 64.4478 60.6858 64.283 61.0527C64.1914 61.1811 64.2098 61.2911 64.265 61.6211C64.4671 62.1527 64.2103 61.9695 64.2839 62.4096C64.3207 62.6296 64.1007 62.6664 64.1375 62.8864C64.1559 62.9964 64.0643 63.1249 63.9907 62.6848C63.9907 62.6848 63.292 59.8614 63.3652 59.623C63.4384 59.3846 62.8314 56.4327 62.9045 56.1943L62.7573 55.3142C62.702 54.9842 62.72 54.4158 62.5916 54.3242C62.4632 54.2326 62.5548 54.1041 62.5727 53.5357C62.5359 53.3157 62.5903 52.2888 62.425 51.9772C62.2966 51.8856 62.4614 51.5187 62.3514 51.5371C62.223 51.4455 62.3146 51.3171 62.3146 51.3171C62.1861 51.2255 62.1861 51.2255 62.2777 51.0971C62.2777 51.0971 62.1121 50.107 62.1853 49.8686L62.0196 48.8785C61.9459 48.4385 61.8727 48.6769 61.9275 48.3285C62.0191 48.2 62.0007 48.09 61.9823 47.98C61.8718 47.32 61.9814 46.6231 61.853 46.5315C61.8346 46.4215 61.8885 44.7161 61.8148 44.2761C61.7412 43.8361 61.9064 44.1477 61.7776 43.3776C61.7592 43.2676 61.8508 43.1392 61.8508 43.1392C61.924 42.9008 61.7035 42.2591 61.5567 42.0575C61.4098 41.8559 61.483 41.6175 60.4561 41.5631C59.9977 41.5268 59.8877 41.5452 59.7777 41.5636C59.4113 42.0773 56.789 41.9506 56.9363 42.8307C56.9731 43.0507 56.9547 42.9407 56.6247 42.9959C56.4963 42.9043 56.5147 43.0143 56.5147 43.0143C56.5515 43.2344 56.4415 43.2528 56.2215 43.2896L55.4882 43.6385C55.2682 43.6753 55.1766 43.8037 55.2502 44.2437C55.2323 44.8122 55.4339 44.6654 55.3423 44.7938C55.0491 45.069 55.4168 46.5907 55.3252 46.7192C55.2336 46.8476 55.4904 47.0308 55.4173 47.2692C55.2341 47.526 55.4181 48.6261 55.3265 48.7545C55.345 48.8645 55.4734 48.9561 55.3634 48.9746L55.4559 50.2031C55.5843 50.2947 55.6027 50.4047 55.6395 50.6247C55.5847 50.9731 55.7863 50.8263 55.75 51.2847L55.9718 53.9618C56.0818 53.9434 56.0274 54.9703 56.1559 55.0619C56.2659 55.0434 56.2659 55.0434 56.1743 55.1719C56.0827 55.3003 56.5981 58.3805 56.7265 58.4721C56.7265 58.4721 56.7818 58.8022 56.947 59.1138C57.3152 61.3139 57.4252 61.2955 57.3704 61.644C57.3888 61.754 57.2972 61.8824 57.444 62.084L57.7013 62.9457C57.4997 63.0925 57.8482 63.1473 57.7566 63.2757C57.665 63.4041 57.9034 63.4773 57.8118 63.6057L57.8486 63.8257C57.8306 64.3942 58.087 63.8989 58.1975 64.559L58.2343 64.779C57.8306 64.3942 58.0879 65.2559 58.3084 65.8975C58.5841 66.8692 58.4925 66.9976 58.933 67.6024C59.0614 67.694 58.9698 67.8224 59.1534 68.2441L59.2271 68.6841C59.1171 68.7025 59.1355 68.8125 59.2823 69.0141C59.5212 69.7658 59.4659 69.4357 59.5212 69.7658C59.6868 70.7558 59.7232 70.2974 60.0169 70.7006C60.0353 70.8106 60.1453 70.7922 60.1453 70.7922L60.4578 71.9839C60.4578 71.9839 60.9899 72.4603 60.8067 72.7172C60.7151 72.8456 60.8435 72.9372 60.8803 73.1572C60.9171 73.3772 60.9903 73.1388 61.064 73.5788C61.0276 74.0373 61.2476 74.0004 61.2844 74.2205C61.3028 74.3305 61.9449 74.7885 61.8349 74.8069C61.8349 74.8069 62.1654 75.4301 62.4222 75.6133L62.5875 75.9249C62.6975 75.9065 62.9727 76.1997 62.8627 76.2181C62.7527 76.2365 63.248 76.4929 63.2664 76.6029C63.2848 76.7129 63.6516 76.8777 63.7616 76.8593C63.8716 76.8409 63.9816 76.8225 64.0185 77.0425C64.0737 77.3726 64.5137 77.2989 64.5505 77.5189C64.5505 77.5189 65.1374 77.6469 65.3574 77.6101Z" fill="#EE72A5"/>
<path d="M21.8356 88.3989C23.0039 88.2034 23.2337 87.619 23.2693 87.8314C23.4288 88.1323 25.1274 86.5378 25.1274 86.5378C25.3398 86.5022 25.4985 85.493 25.9234 85.4219C26.242 85.3686 26.6127 83.6687 26.8958 83.4029C26.878 83.2967 26.9664 83.1727 26.9487 83.0665C26.7714 82.6594 27.1078 82.7123 27.0722 82.4999C27.0545 82.3937 27.2313 82.1457 27.1958 81.9333C27.1247 81.5084 27.4611 81.5613 27.2482 80.9418C26.9821 80.0036 27.5318 81.3311 26.9808 78.0384L26.5724 76.2505C26.4835 75.7194 26.4129 75.9496 26.4657 75.6132C26.4302 75.4008 26.3769 75.0821 26.1818 74.5688L26.1285 74.2502C26.1991 74.02 25.3481 72.197 25.2241 72.1085L24.7633 71.3121C24.7455 71.2059 22.4599 68.6403 22.4599 68.6403C22.4066 68.3216 21.8755 68.4105 21.9107 67.9679C21.9636 67.6314 22.1582 67.4897 22.1227 67.2773C22.2111 67.1533 22.2289 67.2595 22.6004 66.8697C23.5204 65.8423 23.0604 66.356 24.5999 65.1157C25.0954 64.8144 25.998 64.3358 25.9802 64.2295C26.0687 64.1056 26.9006 63.8571 27.1131 63.8216C27.8743 63.8034 28.6356 63.7852 28.8303 63.6434C29.184 63.1475 28.7236 63.0061 28.2454 62.7586C27.9975 62.5817 26.5456 62.3879 25.6958 62.5301C23.3591 62.9211 19.3593 65.1191 19.3771 65.2253C19.5011 65.3138 19.1647 65.2609 18.97 65.4026C18.7754 65.5444 18.1199 64.8898 16.6675 64.0409C13.6567 62.361 11.0351 60.3975 11.1591 60.4859C11.1236 60.2735 10.8218 59.1229 11.1227 58.9634C11.2111 58.8394 11.0338 58.4323 11.2285 58.2905C11.4054 58.0425 11.2814 57.9541 11.4227 57.4937C11.4227 57.4937 12.2356 55.1739 12.4302 55.0321C12.6249 54.8903 12.5187 54.9081 12.6778 54.5539C13.0493 54.1642 12.8369 54.1997 12.9431 54.182C13.0493 54.1642 12.996 53.8455 13.2084 53.81C13.2969 53.686 13.6506 53.19 13.7213 52.9598C13.7035 52.8536 13.8097 52.8358 13.916 52.8181C14.1284 52.7825 14.0573 52.3577 14.1635 52.3399C14.3759 52.3043 15.1897 51.2946 15.3843 51.1529C16.9238 49.9125 15.2599 50.4094 17.8442 49.5401C18.3575 49.3451 19.6325 49.7868 19.8805 49.9637C20.7484 50.5828 20.3058 50.5477 20.5893 50.937C20.8551 51.2201 20.8733 51.9814 21.0506 52.3885C21.2101 52.6893 21.2635 53.008 21.4052 53.2026C21.5292 53.2911 21.5296 53.9461 21.8661 53.999C22.1847 53.9457 22.2558 54.3706 22.7336 53.9631C23.6006 53.272 23.3704 53.2013 23.4233 52.8649C23.3167 52.2276 23.0331 51.8383 23.0505 51.2895C23.0678 50.7406 22.6425 50.1566 22.3235 49.5549C22.1461 49.1478 22.1639 49.254 21.8982 48.9709C20.7996 47.6261 21.0125 48.2456 20.7289 47.8563C20.5516 47.4492 20.357 47.591 20.0912 47.3079C19.9494 47.1132 19.861 47.2372 19.8432 47.131C19.8255 47.0248 17.647 45.7515 14.8325 46.5501L13.6997 46.958C13.3988 47.1176 13.5228 47.206 13.0801 47.1709C12.5135 47.0473 12.5846 47.4722 12.142 47.4371C11.8056 47.3842 11.5225 47.6499 11.2922 47.5793C11.0798 47.6148 11.0976 47.721 10.9914 47.7388C10.7612 47.6681 10.9385 48.0752 10.3719 47.9517C10.1417 47.881 10.3012 48.1819 10.0888 48.2174C9.77012 48.2707 7.9484 51.0869 7.96618 51.1932C7.96618 51.1932 7.59507 52.238 7.48885 52.2557C7.38264 52.2735 7.43596 52.5922 7.32975 52.6099C7.11732 52.6455 6.85199 53.0175 6.88754 53.2299L6.72843 53.5841C6.63999 53.7081 6.60487 54.1507 6.41022 54.2925C6.21556 54.4342 6.1631 55.4257 6.1631 55.4257C5.98622 55.6737 6.35905 57.2492 6.28838 57.4794C6.1115 57.7273 6.60789 58.7362 6.76743 59.037C8.18593 62.2937 17.059 67.0327 17.1123 67.3514L16.9354 67.5993C14.352 69.7787 13.5747 72.311 13.256 72.3643C13.1498 72.3821 12.8138 72.9842 12.8316 73.0904L12.7432 73.2144C12.3539 73.498 12.1774 74.401 12.0361 74.8614C11.6827 76.0124 11.4356 77.1457 11.3125 78.3674C10.9956 81.041 11.4577 83.8026 13.3358 85.8905C14.1508 86.846 15.2667 87.6419 16.4355 88.1015C17.7105 88.5433 18.8967 88.454 20.1184 88.5771C21.1276 88.7358 20.8796 88.5589 21.8356 88.3989ZM18.3634 85.2675C17.6199 85.3919 17.2124 84.9142 17.0533 85.2684C17.0888 85.4808 17.0533 85.2684 16.8409 85.3039C16.5222 85.3572 15.8494 85.2515 15.9378 85.1275C16.0085 84.8973 14.9463 85.075 14.3788 83.6413C14.0949 82.5969 14.3606 82.88 14.254 82.2427C14.254 82.2427 14.1469 80.9504 14.3416 80.8086C14.3238 80.7024 14.2705 80.3838 14.3589 80.2598C14.4474 80.1358 14.818 78.4359 15.154 77.8337C15.3309 77.5857 15.578 76.4525 15.7727 76.3107C16.71 74.7344 16.8162 74.7166 16.8691 74.3802C17.046 74.1322 17.5766 73.3883 17.5588 73.2821C17.5411 73.1759 17.6473 73.1581 17.6295 73.0519C17.8419 73.0163 18.1779 72.4142 18.1602 72.3079C18.1246 72.0955 18.4433 72.0422 18.4255 71.936C18.4077 71.8298 18.6908 71.564 19.133 70.9441C19.6992 70.4125 19.4863 69.793 20.0001 70.253L20.2658 70.5361C20.2836 70.6423 21.0809 71.4916 21.3648 72.536L21.7728 73.6688C22.2514 74.5714 23.3348 79.7404 22.9459 80.679C22.7868 81.0332 22.8228 81.9007 22.6459 82.1487L22.5574 82.2727C22.6108 82.5913 21.4255 83.9908 20.8944 84.0796C20.7882 84.0974 20.5229 84.4694 20.5229 84.4694C20.5229 84.4694 20.0451 84.8769 19.9211 84.7885C19.9211 84.7885 19.8149 84.8062 19.3194 85.1075C18.9301 85.3911 19.1069 85.1431 18.3634 85.2675ZM38.6779 83.9426C39.209 83.8538 39.8467 84.4022 40.9085 83.5694C41.404 83.2681 43.0679 82.7712 42.8888 79.7439C42.8533 79.5315 43.0831 78.9471 42.8529 78.8764C42.7289 78.788 42.7289 78.788 42.6933 78.5755C42.7813 77.7965 42.392 78.08 42.3569 78.5226C42.3925 78.7351 41.88 80.2403 41.3494 80.9842C41.1903 81.3384 41.1903 81.3384 40.9601 81.2677C40.2161 80.7371 40.3219 80.0643 39.5069 79.1088C39.0816 78.5248 39.17 78.4008 38.9576 78.4363C38.8336 78.3479 38.8865 78.0115 38.7625 77.923C38.6207 77.7284 38.6732 76.7369 38.6025 76.9671C38.5141 77.0911 38.3901 77.0027 38.3545 76.7902L38.2483 76.808C38.0359 76.8435 38.0355 76.1885 38.0177 76.0823C38.1239 76.0645 38.1413 75.5156 37.8048 75.4627C37.5746 75.3921 37.5746 75.3921 37.6631 75.2681C37.7515 75.1441 37.7337 75.0379 37.6097 74.9494C37.3618 74.7726 37.4853 74.2059 37.2373 74.0291C36.8654 73.7637 37.2014 73.1616 36.8294 72.8962C36.6876 72.7016 36.4045 72.9673 36.3686 72.0998C36.3152 71.7812 36.1557 71.4803 36.1024 71.1617C36.049 70.843 35.7655 70.4537 35.8362 70.2235C35.8184 70.1173 35.8006 70.0111 35.6944 70.0288C35.5527 69.8342 35.3931 69.5333 35.3753 69.4271C35.4816 69.4093 35.4638 69.3031 35.3398 69.2147C35.198 69.02 35.4989 68.8605 35.2865 68.896C34.9678 68.9494 34.9678 68.9494 34.9501 68.8431C34.9323 68.7369 34.9323 68.7369 35.0385 68.7191C35.1447 68.7014 35.1447 68.7014 35.1092 68.4889C35.1261 67.285 34.4355 67.073 34.7186 66.8073C34.7186 66.8073 34.6652 66.4886 34.559 66.5064C34.4528 66.5242 34.435 66.418 34.4173 66.3117C34.3817 66.0993 34.3817 66.0993 34.4879 66.0815C34.8066 66.0282 34.3453 64.5767 34.3097 64.3643C34.1502 64.0634 33.92 63.9928 33.9907 63.7626C34.0791 63.6386 33.884 63.1253 33.9547 62.8951C34.0254 62.6649 33.972 62.3462 33.8658 62.364C33.848 62.2578 33.7414 61.6205 33.8476 61.6027C34.0423 61.461 33.7232 60.8592 33.8116 60.7352L33.9178 60.7174C33.8823 60.505 33.8468 60.2926 33.9174 60.0624C33.457 59.921 33.6339 59.6731 33.5806 59.3544C33.5272 59.0358 33.3499 58.6287 33.2788 58.2038C33.2433 57.9914 33.4731 57.407 33.1366 57.3541C32.9064 57.2834 32.9064 57.2834 32.8353 56.8586C32.8705 56.4159 32.8705 56.4159 32.6402 56.3453L32.534 56.363C32.7109 56.1151 32.7816 55.8849 32.8878 55.8671L33.0114 55.3005L32.7447 53.7072C32.5674 53.3001 32.691 52.7335 32.4252 52.4504L32.0533 52.1851C31.8937 51.8842 31.8226 51.4594 31.8933 51.2292C32.1053 50.5385 31.8565 49.0515 31.644 49.0871C31.1129 49.1759 31.4841 48.1311 31.4485 47.9187C31.5721 47.3521 31.253 46.7503 31.2703 46.2015C31.3232 45.8651 31.5708 45.3869 31.2166 45.2278C31.0926 45.1393 31.0744 44.378 31.1806 44.3603C31.2868 44.3425 31.3219 43.8999 31.2864 43.6874C30.9673 43.0857 31.1056 38.0398 30.999 37.4025C31.0519 37.0661 30.9448 35.7737 31.1039 35.4195C31.263 35.0654 32.2189 34.9054 32.2012 34.7992C32.3781 34.5512 33.3695 34.6036 33.5642 34.4619C34.0775 34.2668 35.4756 33.4869 35.9716 33.8406C36.2196 34.0175 36.432 33.982 36.3965 33.7696C36.3609 33.5571 36.8391 33.8047 36.9275 33.6807C37.016 33.5567 37.6533 33.45 37.7595 33.4323C37.9013 33.6269 37.8657 33.4145 38.3083 33.4496C38.8572 33.467 39.3172 32.9532 39.4589 33.1479C39.4589 33.1479 39.8309 33.4132 40.0078 33.1652C40.0962 33.0412 40.1318 33.2537 40.6273 32.9524C40.9282 32.7928 41.1406 32.7573 41.3708 32.8279C41.8134 32.8631 42.0788 32.4911 42.7516 32.5969C42.8578 32.5791 42.964 32.5613 42.9463 32.4551C43.1054 32.1009 44.1853 32.0294 44.3977 31.9938C45.1235 31.7632 45.7608 31.6566 46.3625 31.3375C46.7696 31.1602 47.6015 30.9118 47.194 30.434C47.1585 30.2216 47.0345 30.1331 46.9989 29.9207C46.8923 29.2834 47.1043 28.5928 46.7145 28.2213C46.3248 27.8497 45.4751 27.9919 44.82 27.9923C44.4836 27.9394 44.2356 27.7626 43.8992 27.7097C43.3503 27.6923 41.6153 27.7643 40.2345 27.9954C38.836 28.1202 38.4289 28.2975 38.3049 28.2091C38.0569 28.0322 31.684 29.0987 31.6484 28.8862C31.3463 27.0806 32.2662 26.0531 31.6285 25.5047C31.2388 25.1331 30.7255 25.3282 30.7077 25.222C30.5837 25.1336 29.4153 25.3291 28.6541 25.3473C27.999 25.3477 28.247 25.5246 27.8221 25.5957C27.5035 25.649 27.3266 25.897 27.1141 25.9326C27.0079 25.9503 27.0079 25.9503 27.0257 26.0565C27.0435 26.1628 27.0435 26.1628 26.9195 26.0743C26.5653 25.9152 26.0524 26.7654 26.0173 27.208C25.9293 27.9871 25.5573 27.7217 25.6106 28.0404C25.6462 28.2528 25.4693 28.5008 25.3631 28.5186C25.3453 28.4124 24.9738 28.8021 25.1333 29.103C25.2929 29.4038 25.1515 29.8642 25.1164 30.3069C25.0813 30.7495 24.6031 30.502 24.3907 30.5375C24.072 30.5908 23.4525 30.8037 23.3285 30.7153C23.293 30.5028 21.9477 30.9463 21.1864 30.9645C20.6376 30.9472 20.7794 31.1418 20.3367 31.1067L19.2568 31.1783C18.1946 31.356 16.7605 31.2684 16.301 32.4372C16.1774 33.0038 16.2663 33.5349 16.3916 35.5886C16.3742 36.1374 16.64 36.4205 17.295 36.4201C17.5075 36.3845 17.7021 36.2428 18.0208 36.1894C18.2332 36.1539 18.9238 36.3659 18.9767 36.0295C19.0474 35.7993 19.5429 35.498 19.4722 35.7282C19.4016 35.9584 19.738 36.0113 19.7202 35.9051C19.7909 35.6749 20.1806 36.0464 20.4637 35.7806C20.5522 35.6566 20.6584 35.6389 20.7824 35.7273C21.0126 35.798 21.4374 35.7269 21.4197 35.6207C21.4019 35.5145 21.9507 35.5318 22.5174 35.6554C22.8538 35.7082 22.96 35.6905 22.9422 35.5843C23.0129 35.3541 23.0307 35.4603 23.5617 35.3714C24.5355 35.3176 24.4648 35.5478 24.483 36.3091C24.4479 36.7518 24.519 37.1766 24.4839 37.6193C24.4665 38.1681 24.4492 38.717 24.538 39.248C24.6269 39.7791 24.4678 40.1333 24.3442 40.6999C24.2389 42.0278 24.5584 43.2847 24.5415 44.4886C24.4539 45.9227 24.6672 47.1973 24.6858 48.6136C24.6685 49.1625 24.5449 49.7291 24.5276 50.278C24.652 51.0215 24.9889 51.7294 24.9893 52.3845C25.167 53.4466 25.1324 54.5443 25.4163 55.5887C25.5585 56.4385 25.7185 57.3944 26.0731 58.2086L26.1975 58.9521C26.4108 60.2267 26.7824 59.8369 26.6232 60.1911C26.5526 60.4213 26.6414 60.9524 26.7654 61.0408C26.8717 61.0231 26.8894 61.1293 26.8188 61.3595C26.9076 61.8906 27.2085 61.731 27.0316 61.979C26.8192 62.0145 27.4049 64.2095 27.6173 64.174C27.7235 64.1562 27.7769 64.4748 27.5822 64.6166L27.6355 64.9352C27.7951 65.2361 28.4163 67.6435 28.5581 67.8382C28.7354 68.2453 28.9309 69.4136 29.0727 69.6083C29.1966 69.6967 29.6228 71.5908 29.8708 71.7677L30.0836 72.3872L30.1192 72.5997C30.261 72.7943 30.3676 73.4316 30.5978 73.5023C30.828 73.573 30.5098 74.2813 30.8107 74.1218C31.0053 73.98 31.0053 73.98 31.0409 74.1925C31.0942 74.5111 31.1653 74.936 31.3955 75.0066C31.5195 75.0951 31.555 75.3075 31.4488 75.3253C31.3426 75.3431 31.3604 75.4493 31.4844 75.5377C31.7324 75.7146 31.7328 76.3697 31.9452 76.3341C32.2639 76.2808 32.0696 77.0776 32.2821 77.0421C32.4945 77.0065 32.5305 77.874 32.7607 77.9447C32.9909 78.0154 33.1509 78.9713 33.8419 79.8384C34.1077 80.1215 34.0725 80.5641 34.7987 80.9885C34.9227 81.077 34.976 81.3956 35.1707 81.2539C35.1707 81.2539 35.2769 81.2361 35.2947 81.3423C35.224 81.5725 35.4013 81.9796 35.5075 81.9618C35.72 81.9263 35.9679 82.1031 35.9857 82.2094C36.0568 82.6342 36.4999 83.3244 36.7123 83.2889C36.7123 83.2889 36.9425 83.3595 37.1905 83.5364C37.7927 83.8724 38.0935 83.7129 38.3415 83.8897C38.4655 83.9782 38.5717 83.9604 38.6779 83.9426ZM31.4104 43.7759C31.3219 43.8999 31.5521 43.9705 31.5166 43.7581C31.4988 43.6519 31.3926 43.6697 31.4104 43.7759ZM54.4375 53.6804C54.101 53.6275 53.8357 53.9995 53.7828 54.3359C53.1993 55.4162 51.9264 58.2498 51.0949 59.1533C50.8296 59.5252 50.582 60.0034 50.2105 60.3932C49.5914 61.2611 48.9901 62.2352 48.247 63.0147C47.5924 63.6702 47.3448 64.1484 47.3448 64.1484C47.2386 64.1662 47.3626 64.2546 47.1502 64.2902C47.044 64.3079 46.3364 65.2999 46.2302 65.3176L45.7525 65.7252C45.7525 65.7252 45.6462 65.7429 45.2569 66.0265C43.6819 67.0544 42.9735 66.7361 42.6371 66.6832C42.1945 66.6481 41.9287 66.365 41.5919 65.6571C41.4145 65.25 41.0946 63.3381 41.1653 63.1079C41.3421 62.8599 40.864 62.6124 41.5541 62.1693C42.0497 61.868 41.9257 61.7796 42.1381 61.744C42.3505 61.7085 42.5097 61.3543 42.6159 61.3365C42.7221 61.3187 43.4123 60.8757 43.5007 60.7517C43.5892 60.6277 43.6954 60.6099 43.9962 60.4504L44.2793 60.1846C44.3678 60.0606 44.5447 59.8126 44.6509 59.7949C44.8633 59.7593 44.81 59.4407 45.0224 59.4051C45.0224 59.4051 45.7655 58.6256 45.9424 58.3777C46.3668 57.6515 46.5615 57.5097 46.5437 57.4035C46.5259 57.2973 47.4281 56.1636 47.3925 55.9512C47.3748 55.845 47.5872 55.8094 47.5694 55.7032C47.5517 55.597 47.6401 55.473 47.7463 55.4552C47.9232 55.2072 47.8521 54.7824 47.9405 54.6584L48.1174 54.4104C48.2059 54.2864 48.0819 54.198 48.1703 54.074C48.241 53.8438 48.117 53.7554 48.3116 53.6136C48.4179 53.5958 48.2939 53.5074 48.4708 53.2594C48.4352 53.047 48.3815 52.0732 47.9917 51.7017C47.6904 51.2062 47.7966 51.1884 47.5664 51.1177C47.23 51.0649 47.4424 51.0293 47.106 50.9764L46.7518 50.8173C46.5216 50.7466 46.5394 50.8528 46.1852 50.6937C45.9372 50.5169 45.831 50.5346 45.2999 50.6235L44.5742 50.8541C44.2555 50.9075 44.2378 50.8012 44.2378 50.8012L43.8129 50.8723C42.1668 51.4754 42.5565 51.8469 42.1317 51.918C41.9192 51.9536 41.6539 52.3255 41.477 52.5735C41.5126 52.7859 41.2472 53.1579 41.0348 53.1935C40.9286 53.2112 37.4972 58.1531 38.049 62.7559C38.4405 65.7477 39.716 66.8445 40.7612 67.8707C41.0092 68.0476 41.7709 68.6844 41.8771 68.6667C41.9833 68.6489 42.4615 68.8964 42.6917 68.9671C42.9041 68.9315 42.8157 69.0555 43.0281 69.02L43.1521 69.1084C43.3823 69.1791 44.5685 69.0898 44.8871 69.0365C45.3826 68.7352 45.9137 68.6463 46.5155 68.3272C46.9048 68.0437 47.135 68.1144 47.2234 67.9904L47.3119 67.8664C47.5243 67.8308 47.7896 67.4589 47.7718 67.3526L47.8781 67.3349C48.9047 66.9447 48.8336 66.5198 49.1344 66.3603C49.4353 66.2008 49.7006 65.8288 49.6829 65.7226C49.6473 65.5101 50.2135 64.9786 50.2664 64.6422C51.5752 62.6762 52.3534 61.454 52.7601 60.6216L53.1845 59.8955C53.5205 59.2933 55.6769 53.9097 54.4375 53.6804ZM41.3933 59.9032C41.3755 59.797 41.4818 59.7792 41.5347 59.4428C41.5875 59.1064 41.7822 58.9646 41.7644 58.8584L41.8173 58.522C42.0826 58.15 41.9938 57.619 42.2946 57.4594C42.4009 57.4416 42.4893 57.3177 42.56 57.0875C42.5244 56.875 42.7013 56.627 42.7013 56.627C42.9137 56.5915 43.5679 55.2809 43.6386 55.0507C43.6737 54.6081 43.8333 54.909 43.8684 54.4663C43.9213 54.1299 44.2577 54.1828 44.2399 54.0766C44.2221 53.9704 44.3106 53.8464 44.5759 53.4744C44.8235 52.9962 45.0537 53.0669 45.1421 52.9429L45.3723 53.0136C45.7087 53.0665 45.7443 53.2789 45.9745 53.3496L46.2047 53.4202L45.9398 54.4473C45.5865 55.5983 42.8266 58.6807 42.6319 58.8224L42.455 59.0704C42.4728 59.1766 42.0128 59.6904 41.6057 59.8677L41.4289 60.1157L41.3933 59.9032ZM63.1151 75.4857C63.4338 75.4323 63.6106 75.1844 63.9115 75.0248C64.9026 74.4222 65.0443 74.6169 65.239 74.4751C65.7167 74.0676 65.0968 73.6254 65.2559 73.2712C65.2381 73.165 65.3443 73.1472 65.3266 73.041C65.1844 72.1913 65.2195 71.7486 65.2017 71.6424C65.0777 71.554 65.2368 71.1998 65.1835 70.8811C65.024 70.5803 65.2364 70.5447 65.1124 70.4563C64.9884 70.3678 65.0946 70.35 65.0058 69.819C64.8991 69.1817 65.0409 69.3763 64.8987 68.5266C64.8276 68.1018 64.7743 67.7831 64.8805 67.7653C64.8449 67.5529 64.7209 67.4645 64.8094 67.3405L64.685 66.597C64.7734 66.473 64.7201 66.1543 64.6486 65.0744C64.5952 64.7558 64.3633 62.0648 64.4517 61.9408L64.3971 59.657C64.326 59.2321 64.5207 59.0904 64.4496 58.6655C64.4847 58.2229 64.5731 58.0989 64.5376 57.8864L64.5198 57.7802C64.6083 57.6562 64.6434 57.2136 64.5194 57.1252C64.5194 57.1252 64.6963 56.8772 64.6785 56.771C64.6785 56.771 64.7843 56.0981 64.7487 55.8857C64.8194 55.6555 65.1016 54.0796 65.0839 53.9734C65.0661 53.8672 65.367 53.7076 65.243 53.6192C65.119 53.5307 65.4021 53.265 65.2959 53.2828C65.2959 53.2828 65.455 52.9286 65.4372 52.8224C65.4194 52.7161 65.5256 52.6984 65.6496 52.7868C65.6674 52.893 65.8447 53.3001 65.7385 53.3179C65.6323 53.3357 66.5392 59.4077 67.8675 60.1681C68.1155 60.345 68.8426 62.0796 71.0197 61.3877C72.1703 61.0859 72.8956 60.2002 72.7539 60.0056C72.7361 59.8994 72.8423 59.8816 72.8423 59.8816C72.8068 59.6692 72.9837 59.4212 72.8597 59.3327C73.0721 59.2972 72.9832 58.7661 72.8233 57.8102L72.8051 57.0489C72.6811 56.9605 72.61 56.5356 72.6095 55.8805C72.6269 55.3317 72.5562 55.5619 72.5736 55.013C72.6616 54.234 72.5198 54.0393 72.6082 53.9153C72.6967 53.7913 72.6963 53.1363 72.5367 52.8354C72.5012 52.623 72.7314 52.6936 72.6958 52.4812C72.6958 52.4812 73.1363 49.241 73.207 49.0108C73.2954 48.8868 73.1714 48.7983 73.2599 48.6744C73.2599 48.6744 73.2065 48.3557 73.3128 48.3379C73.419 48.3202 73.3301 47.7891 73.5594 46.5496C73.6123 46.2132 73.9661 45.7172 73.9128 45.3986L74.1781 45.0266C74.4256 44.5484 74.3901 44.336 74.6025 44.3005C74.7087 44.2827 74.6554 43.964 74.8501 43.8223C75.0447 43.6805 74.9207 43.5921 75.0092 43.4681C75.2038 43.3263 74.9914 43.3619 74.9736 43.2557L75.0799 43.2379C75.2038 43.3263 75.1861 43.2201 75.2745 43.0961C75.5576 42.8304 75.5754 42.9366 75.6638 42.8126C75.7523 42.6886 75.7523 42.6886 75.8585 42.6708C75.8585 42.6708 75.9473 43.2019 75.8767 43.4321C75.8593 43.981 75.8593 43.981 75.9127 44.2996C75.842 44.5298 75.842 44.5298 75.9482 44.512C76.0544 44.4943 76.0722 44.6005 75.966 44.6182C75.7713 44.76 75.7548 46.619 75.7548 46.619L75.7375 47.1678C75.7731 47.3803 75.6313 47.1856 75.7202 47.7167C75.8268 48.354 75.5611 48.0709 75.6144 48.3895C75.6144 48.3895 75.7032 48.9206 75.6148 49.0446C75.5264 49.1686 75.7743 49.3455 75.6681 49.3633C75.5619 49.381 75.5797 49.4872 75.5975 49.5935C75.633 49.8059 75.4748 51.4702 75.6521 51.8773C75.6521 51.8773 75.7054 52.1959 75.8116 52.1782C75.5992 52.2137 76.1172 59.2244 76.9856 60.4985C77.0034 60.6047 77.1273 60.6932 77.1451 60.7994C77.2869 60.9941 77.1984 61.118 77.234 61.3305C77.3224 61.2065 77.3047 61.1003 77.2869 60.9941C77.6775 62.6757 78.2441 62.7993 78.3152 63.2241C78.333 63.3304 78.5454 63.2948 78.457 63.4188C78.457 63.4188 79.4316 64.6752 79.5555 64.7636C79.5733 64.8698 79.6973 64.9583 79.6973 64.9583L79.7151 65.0645C79.8213 65.0467 79.8213 65.0467 79.9808 65.3476L80.3528 65.6129L80.7425 65.9844C80.7425 65.9844 80.9905 66.1613 81.0083 66.2675C81.0261 66.3738 81.0261 66.3738 81.398 66.6391C81.77 66.9044 82.39 67.3466 82.7264 67.3995C82.9566 67.4702 83.0628 67.4524 83.2046 67.6471C83.3286 67.7355 83.4348 67.7177 83.4348 67.7177L83.541 67.6999C83.665 67.7884 84.1076 67.8235 84.32 67.788C84.5147 67.6462 84.6565 67.8408 84.8689 67.8053C85.6124 67.6809 87.1168 66.8832 86.8688 66.7063C86.7448 66.6179 86.9572 66.5823 86.975 66.6885C86.9928 66.7947 87.0812 66.6708 87.1697 66.5468C87.1519 66.4406 87.1341 66.3343 87.3465 66.2988C87.4528 66.281 87.435 66.1748 87.4172 66.0686C87.3994 65.9624 87.4879 65.8384 87.5763 65.7144C87.8416 65.3424 88.0354 63.8905 88.1945 63.5363C88.4065 62.8457 88.7603 62.3498 89.0963 61.7476C89.0963 61.7476 90.7377 53.9388 90.7546 52.7349C90.7719 52.186 90.24 50.9648 89.4791 51.6381C89.196 51.9038 89.2316 52.1162 88.7374 54.3827C86.6369 64.0154 86.1587 63.7678 85.664 65.3793C85.5933 65.6095 85.5409 66.601 85.0449 66.2472C84.6729 65.9819 84.4961 66.2298 84.4783 66.1236C84.4605 66.0174 84.4427 65.9112 84.3188 65.8228C83.9646 65.6636 84.1592 65.5219 83.9468 65.5574C83.8406 65.5752 83.6988 65.3806 83.6988 65.3806C83.7872 65.2566 83.6277 64.9557 83.5215 64.9735C83.3091 65.009 83.0962 64.3895 82.9722 64.3011L82.9367 64.0886C82.9189 63.9824 82.4758 63.2922 82.2634 63.3278C82.1394 63.2393 82.1394 63.2393 82.2278 63.1153C82.1216 63.1331 82.139 62.5843 81.9265 62.6198C81.6963 62.5491 81.9088 62.5136 81.7492 62.2127L81.4835 61.9296L81.4657 61.8234C81.5541 61.6994 81.3768 61.2923 81.2528 61.2039L81.2351 61.0977C81.4119 60.8497 81.1284 60.4604 81.0044 60.3719C80.6325 60.1066 80.508 59.3631 80.3485 59.0622L80.3129 58.8498C80.4014 58.7258 80.2774 58.6374 80.1712 58.6552C80.065 58.6729 80.0472 58.5667 80.1534 58.5489C80.2419 58.425 80.2063 58.2125 80.1885 58.1063C80.0823 58.1241 79.745 56.7611 79.621 56.6726C79.4793 56.478 79.5677 56.354 79.5499 56.2478C79.426 56.1593 79.4966 55.9291 79.4433 55.6105C79.266 55.2034 79.4784 55.1678 79.2482 55.0972L79.2127 54.8847C79.2833 54.6545 79.1238 54.3537 79.1945 54.1234C79.194 53.4684 78.9994 53.6101 79.07 53.3799C79.1407 53.1497 79.1407 53.1497 79.0345 53.1675C78.9283 53.1853 78.7865 52.9906 78.9989 52.9551C79.4416 52.9902 78.9799 50.8837 79.0683 50.7597C79.1568 50.6357 78.9964 49.0247 79.1026 49.0069C79.2088 48.9891 78.9426 48.051 79.0133 47.8208C79.0839 47.5906 78.9599 47.5021 79.0306 47.2719C79.1191 47.1479 79.1013 47.0417 79.0835 46.9355C79.0653 46.1742 79.0475 46.068 78.9413 46.0858C78.8351 46.1035 78.9235 45.9795 79.0297 45.9618C79.136 45.944 79.1182 45.8378 79.0826 45.6254C78.976 44.9881 79.2058 44.4037 79.2938 43.6246C79.3285 42.5269 79.116 42.5625 79.2045 42.4385C79.3107 42.4207 79.328 41.8718 79.0623 41.5887C78.9383 41.5003 78.9027 41.2879 78.9027 41.2879C79.0441 40.8275 78.1233 40.5448 77.9108 40.5803C77.1495 40.5985 76.3354 40.9532 75.7159 41.166L75.3972 41.2194C75.3265 41.4496 75.0786 41.2727 74.4239 41.9282C73.8755 42.5659 73.1147 43.2392 72.8142 44.0538C72.6373 44.3018 72.372 44.6737 72.3369 45.1164C72.16 45.3643 72.0716 45.4883 72.0009 45.7185C71.488 46.5687 70.2347 52.1287 70.4831 52.9607C70.6248 53.1553 70.4302 53.2971 70.4657 53.5095C70.5191 53.8282 70.236 54.0939 70.3777 54.2886C70.5373 54.5895 70.3079 55.8289 70.3079 55.8289L70.3435 56.0414C70.2372 56.0591 70.3083 56.484 70.3617 56.8026C70.415 57.1213 70.2381 57.3693 70.2737 57.5817C70.3092 57.7941 70.1146 57.9359 70.1323 58.0421L70.0968 57.8297C70.1497 57.4933 69.8488 57.6528 69.6533 56.4844C69.6 56.1658 69.8128 56.7853 69.1027 53.8468C69.0672 53.6344 68.925 52.7847 68.8187 52.8024C68.8187 52.8024 68.801 52.6962 68.8894 52.5722C68.9779 52.4482 68.6757 50.6426 68.6757 50.6426C68.4099 50.3595 68.5335 49.7929 68.4095 49.7044C68.1793 49.6337 68.4979 49.5804 68.3562 49.3858C68.126 49.3151 68.4268 49.1556 67.8602 49.032C67.1696 48.82 67.2407 49.2449 66.9043 49.192C66.6919 49.2275 66.4972 49.3693 66.391 49.3871C66.2848 49.4048 65.0986 49.4941 64.5502 50.1319L63.5774 51.4957C63.5951 51.602 63.6307 51.8144 63.5245 51.8322C63.3298 51.9739 63.2769 52.3103 63.1711 52.9832C62.8707 53.7978 62.9591 53.6738 62.8885 53.904C62.6938 54.0458 62.9418 54.2227 62.8004 54.6831L62.836 54.8955C62.836 54.8955 62.8538 55.0017 62.7476 55.0195L62.6591 55.1435C62.6591 55.1435 62.6769 55.2497 62.5707 55.2675C62.5884 55.3737 62.5 55.4977 62.5178 55.6039C62.5711 55.9225 62.4649 55.9403 62.4475 56.4892C62.4302 57.038 62.1293 57.1975 62.1827 57.5162C62.3244 57.7108 62.112 57.7464 62.1653 58.065C62.1831 58.1713 62.1831 58.1713 62.0946 58.2953C62.0946 58.2953 62.0773 58.8441 62.2013 58.9325C62.2013 58.9325 62.2368 59.145 62.0777 59.4992C61.9893 59.6232 62.0071 59.7294 62.0604 60.048C62.2555 60.5613 62.0075 60.3844 62.0786 60.8093C62.1141 61.0217 61.9017 61.0573 61.9373 61.2697C61.955 61.3759 61.8666 61.4999 61.7955 61.0751C61.7955 61.0751 61.1209 58.349 61.1916 58.1188C61.2623 57.8886 60.6761 55.0386 60.7468 54.8083L60.6046 53.9586C60.5513 53.64 60.5686 53.0911 60.4446 53.0027C60.3207 52.9142 60.4091 52.7903 60.4264 52.2414C60.3909 52.029 60.4434 51.0375 60.2838 50.7366C60.1598 50.6482 60.3189 50.294 60.2127 50.3118C60.0887 50.2233 60.1772 50.0993 60.1772 50.0993C60.0532 50.0109 60.0532 50.0109 60.1416 49.8869C60.1416 49.8869 59.9816 48.931 60.0523 48.7007L59.8923 47.7448C59.8212 47.3199 59.7506 47.5502 59.8035 47.2137C59.8919 47.0897 59.8741 46.9835 59.8564 46.8773C59.7497 46.24 59.8555 45.5672 59.7315 45.4787C59.7137 45.3725 59.7658 43.726 59.6947 43.3011C59.6236 42.8762 59.7831 43.1771 59.6587 42.4336C59.6409 42.3274 59.7294 42.2034 59.7294 42.2034C59.8 41.9732 59.5872 41.3537 59.4454 41.159C59.3036 40.9644 59.3743 40.7342 58.3828 40.6817C57.9402 40.6466 57.834 40.6644 57.7278 40.6821C57.374 41.1781 54.8422 41.0558 54.9844 41.9055C55.0199 42.118 55.0021 42.0118 54.6835 42.0651C54.5595 41.9766 54.5773 42.0829 54.5773 42.0829C54.6128 42.2953 54.5066 42.3131 54.2942 42.3486L53.5862 42.6855C53.3738 42.721 53.2853 42.845 53.3564 43.2699C53.3391 43.8187 53.5338 43.677 53.4453 43.8009C53.1622 44.0667 53.5173 45.5359 53.4288 45.6599C53.3404 45.7839 53.5884 45.9608 53.5177 46.191C53.3408 46.439 53.5186 47.5011 53.4301 47.6251C53.4479 47.7313 53.5719 47.8198 53.4657 47.8376L53.555 49.0237C53.679 49.1121 53.6967 49.2184 53.7323 49.4308C53.6794 49.7672 53.874 49.6254 53.8389 50.0681L54.0531 52.6528C54.1593 52.635 54.1068 53.6265 54.2308 53.715C54.337 53.6972 54.337 53.6972 54.2486 53.8212C54.1602 53.9452 54.6578 56.9192 54.7818 57.0076C54.7818 57.0076 54.8352 57.3263 54.9947 57.6271C55.3502 59.7515 55.4564 59.7337 55.4035 60.0701C55.4213 60.1763 55.3328 60.3003 55.4746 60.495L55.723 61.3269C55.5284 61.4687 55.8648 61.5216 55.7763 61.6456C55.6879 61.7695 55.9181 61.8402 55.8297 61.9642L55.8652 62.1766C55.8479 62.7255 56.0954 62.2473 56.2021 62.8846L56.2376 63.097C55.8479 62.7255 56.0963 63.5574 56.3091 64.177C56.5753 65.1151 56.4869 65.2391 56.9122 65.8231C57.0362 65.9115 56.9477 66.0355 57.125 66.4426L57.1961 66.8675C57.0899 66.8852 57.1077 66.9914 57.2495 67.1861C57.4801 67.9118 57.4268 67.5932 57.4801 67.9118C57.6401 68.8678 57.6752 68.4251 57.9587 68.8144C57.9765 68.9207 58.0827 68.9029 58.0827 68.9029L58.3844 70.0535C58.3844 70.0535 58.8982 70.5135 58.7213 70.7614C58.6328 70.8854 58.7568 70.9739 58.7924 71.1863C58.8279 71.3987 58.8986 71.1685 58.9697 71.5934C58.9346 72.036 59.147 72.0005 59.1826 72.2129C59.2003 72.3191 59.8203 72.7613 59.7141 72.7791C59.7141 72.7791 60.0331 73.3808 60.2811 73.5577L60.4407 73.8586C60.5469 73.8408 60.8126 74.1239 60.7064 74.1417C60.6002 74.1595 61.0784 74.407 61.0962 74.5132C61.1139 74.6195 61.4681 74.7786 61.5743 74.7608C61.6806 74.743 61.7868 74.7252 61.8223 74.9377C61.8756 75.2563 62.3005 75.1852 62.336 75.3976C62.336 75.3976 62.9027 75.5212 63.1151 75.4857Z" fill="#DDE9F0"/>
<path d="M21.0675 85.8133C22.1942 85.6248 22.4157 85.0612 22.45 85.2661C22.6038 85.5562 24.2418 84.0186 24.2418 84.0186C24.4466 83.9844 24.5996 83.0111 25.0093 82.9426C25.3166 82.8912 25.674 81.252 25.947 80.9957C25.9299 80.8933 26.0151 80.7738 25.998 80.6713C25.827 80.2788 26.1514 80.3298 26.1172 80.1249C26.1 80.0225 26.2706 79.7834 26.2363 79.5785C26.1677 79.1689 26.4921 79.2199 26.2869 78.6225C26.0302 77.7178 26.5603 78.9979 26.029 75.8228L25.6352 74.0988C25.5495 73.5867 25.4813 73.8086 25.5323 73.4842C25.4981 73.2794 25.4466 72.9721 25.2585 72.4772L25.2071 72.1699C25.2752 71.9479 24.4546 70.19 24.3351 70.1047L23.8907 69.3368C23.8735 69.2343 21.6696 66.7603 21.6696 66.7603C21.6182 66.4531 21.1061 66.5388 21.1399 66.1119C21.1909 65.7875 21.3786 65.6508 21.3444 65.446C21.4296 65.3264 21.4468 65.4288 21.805 65.053C22.6921 64.0622 22.2486 64.5576 23.7331 63.3616C24.2109 63.0711 25.0813 62.6095 25.0642 62.5071C25.1494 62.3876 25.9517 62.148 26.1565 62.1137C26.8906 62.0962 27.6247 62.0786 27.8124 61.9419C28.1535 61.4637 27.7096 61.3274 27.2485 61.0887C27.0093 60.9181 25.6093 60.7312 24.7899 60.8684C22.5366 61.2454 18.6797 63.3649 18.6969 63.4673C18.8164 63.5526 18.492 63.5016 18.3043 63.6383C18.1166 63.775 17.4845 63.1438 16.0841 62.3252C13.1807 60.7053 10.6528 58.8119 10.7723 58.8972C10.7381 58.6924 10.4471 57.5829 10.7372 57.429C10.8225 57.3095 10.6515 56.9169 10.8392 56.7802C11.0098 56.5411 10.8903 56.4558 11.0265 56.0118C11.0265 56.0118 11.8104 53.7749 11.9981 53.6382C12.1858 53.5015 12.0834 53.5186 12.2368 53.1771C12.5951 52.8012 12.3902 52.8355 12.4926 52.8184C12.5951 52.8012 12.5436 52.494 12.7485 52.4597C12.8338 52.3401 13.1749 51.8619 13.243 51.6399C13.2259 51.5375 13.3283 51.5203 13.4308 51.5032C13.6356 51.4689 13.567 51.0592 13.6695 51.0421C13.8743 51.0078 14.659 50.0342 14.8467 49.8975C16.3312 48.7014 14.7267 49.1805 17.2187 48.3423C17.7137 48.1542 18.9432 48.5802 19.1823 48.7508C20.0192 49.3478 19.5924 49.3139 19.8658 49.6893C20.122 49.9623 20.1396 50.6964 20.3106 51.0889C20.4644 51.3791 20.5158 51.6863 20.6525 51.874C20.7721 51.9593 20.7725 52.591 21.0969 52.642C21.4042 52.5906 21.4727 53.0003 21.9334 52.6073C22.7695 51.9409 22.5476 51.8728 22.5986 51.5484C22.4957 50.9338 22.2223 50.5584 22.239 50.0292C22.2558 49.4999 21.8457 48.9368 21.538 48.3566C21.367 47.964 21.3841 48.0664 21.1279 47.7935C20.0685 46.4967 20.2738 47.0941 20.0004 46.7187C19.8294 46.3261 19.6417 46.4628 19.3855 46.1898C19.2488 46.0021 19.1635 46.1217 19.1463 46.0193C19.1292 45.9168 17.0285 44.689 14.3145 45.459L13.2222 45.8524C12.932 46.0063 13.0516 46.0915 12.6248 46.0577C12.0784 45.9385 12.1469 46.3482 11.7201 46.3144C11.3957 46.2634 11.1227 46.5196 10.9007 46.4515C10.6959 46.4858 10.713 46.5882 10.6106 46.6053C10.3886 46.5372 10.5596 46.9297 10.0132 46.8106C9.79124 46.7424 9.94508 47.0326 9.74024 47.0668C9.43297 47.1183 7.67632 49.8339 7.69346 49.9363C7.69346 49.9363 7.33561 50.9438 7.23318 50.961C7.13076 50.9781 7.18218 51.2854 7.07976 51.3025C6.87491 51.3368 6.61907 51.6955 6.65335 51.9003L6.49992 52.2419C6.41464 52.3614 6.38078 52.7882 6.19307 52.9249C6.00537 53.0616 5.95478 54.0177 5.95478 54.0177C5.78421 54.2568 6.14373 55.776 6.07559 55.998C5.90502 56.2371 6.38368 57.2099 6.53752 57.5001C7.90537 60.6405 16.4615 65.2102 16.513 65.5174L16.3424 65.7566C13.8512 67.8581 13.1017 70.2999 12.7944 70.3513C12.692 70.3685 12.368 70.9491 12.3851 71.0516L12.2998 71.1711C11.9244 71.4445 11.7543 72.3153 11.618 72.7593C11.2773 73.8692 11.039 74.962 10.9203 76.14C10.6147 78.7181 11.0603 81.3811 12.8713 83.3944C13.6572 84.3158 14.7332 85.0834 15.8603 85.5265C17.0898 85.9525 18.2336 85.8664 19.4116 85.9851C20.3848 86.1381 20.1457 85.9676 21.0675 85.8133ZM17.7194 82.7937C17.0024 82.9137 16.6095 82.453 16.456 82.7946C16.4903 82.9994 16.456 82.7946 16.2512 82.8288C15.9439 82.8803 15.2951 82.7782 15.3804 82.6587C15.4485 82.4367 14.4243 82.6081 13.8771 81.2256C13.6033 80.2185 13.8595 80.4915 13.7567 79.877C13.7567 79.877 13.6535 78.6308 13.8412 78.4941C13.824 78.3917 13.7726 78.0844 13.8579 77.9648C13.9432 77.8453 14.3006 76.2061 14.6246 75.6254C14.7952 75.3863 15.0335 74.2935 15.2212 74.1568C16.125 72.6368 16.2274 72.6197 16.2784 72.2953C16.449 72.0561 16.9607 71.3388 16.9435 71.2364C16.9264 71.1339 17.0288 71.1168 17.0117 71.0144C17.2165 70.9801 17.5405 70.3994 17.5234 70.297C17.4891 70.0922 17.7964 70.0407 17.7792 69.9383C17.7621 69.8359 18.0351 69.5796 18.4615 68.9818C19.0074 68.4693 18.8022 67.8719 19.2976 68.3155L19.5538 68.5884C19.571 68.6909 20.3398 69.5098 20.6136 70.5169L21.007 71.6093C21.4685 72.4796 22.5132 77.464 22.1382 78.3691C21.9847 78.7107 22.0194 79.5472 21.8489 79.7863L21.7636 79.9059C21.815 80.2131 20.6721 81.5626 20.16 81.6483C20.0575 81.6654 19.8017 82.0241 19.8017 82.0241C19.8017 82.0241 19.341 82.4171 19.2214 82.3318C19.2214 82.3318 19.119 82.3489 18.6412 82.6395C18.2658 82.9129 18.4363 82.6737 17.7194 82.7937ZM37.3084 81.5162C37.8205 81.4305 38.4354 81.9593 39.4592 81.1562C39.9371 80.8657 41.5415 80.3866 41.3689 77.4674C41.3346 77.2625 41.5562 76.699 41.3342 76.6309C41.2146 76.5456 41.2146 76.5456 41.1804 76.3407C41.2652 75.5895 40.8898 75.8629 40.8559 76.2897C40.8902 76.4946 40.3961 77.946 39.8844 78.6634C39.731 79.005 39.731 79.005 39.509 78.9368C38.7916 78.4251 38.8936 77.7763 38.1077 76.8549C37.6976 76.2918 37.7829 76.1723 37.578 76.2065C37.4585 76.1213 37.5095 75.7968 37.3899 75.7116C37.2532 75.5239 37.3038 74.5678 37.2357 74.7898C37.1504 74.9093 37.0308 74.824 36.9965 74.6192L36.8941 74.6363C36.6893 74.6706 36.6888 74.0389 36.6717 73.9365C36.7741 73.9194 36.7909 73.3901 36.4664 73.3391C36.2445 73.271 36.2445 73.271 36.3297 73.1514C36.415 73.0319 36.3979 72.9294 36.2783 72.8442C36.0392 72.6736 36.1584 72.1272 35.9192 71.9566C35.5605 71.7008 35.8845 71.1201 35.5258 70.8643C35.3891 70.6766 35.1162 70.9328 35.0815 70.0963C35.03 69.7891 34.8762 69.4989 34.8248 69.1917C34.7734 68.8844 34.5 68.509 34.5681 68.287C34.551 68.1846 34.5338 68.0822 34.4314 68.0993C34.2947 67.9116 34.1409 67.6215 34.1237 67.5191C34.2262 67.5019 34.209 67.3995 34.0894 67.3142C33.9527 67.1265 34.2429 66.9727 34.038 67.0069C33.7308 67.0584 33.7308 67.0584 33.7136 66.9559C33.6965 66.8535 33.6965 66.8535 33.7989 66.8364C33.9013 66.8192 33.9013 66.8192 33.8671 66.6144C33.8834 65.4535 33.2174 65.249 33.4904 64.9928C33.4904 64.9928 33.439 64.6855 33.3366 64.7027C33.2341 64.7198 33.217 64.6174 33.1999 64.515C33.1656 64.3101 33.1656 64.3101 33.268 64.293C33.5753 64.2415 33.1305 62.8419 33.0962 62.6371C32.9423 62.3469 32.7204 62.2788 32.7885 62.0568C32.8738 61.9373 32.6857 61.4423 32.7538 61.2203C32.822 60.9983 32.7705 60.6911 32.6681 60.7082C32.651 60.6058 32.5481 59.9912 32.6506 59.9741C32.8383 59.8374 32.5306 59.2572 32.6159 59.1376L32.7183 59.1204C32.684 58.9156 32.6497 58.7108 32.7179 58.4888C32.2739 58.3525 32.4445 58.1134 32.393 57.8061C32.3416 57.4988 32.1706 57.1063 32.1021 56.6966C32.0678 56.4918 32.2894 55.9282 31.965 55.8772C31.743 55.8091 31.743 55.8091 31.6744 55.3994C31.7083 54.9726 31.7083 54.9726 31.4863 54.9044L31.3839 54.9216C31.5545 54.6824 31.6226 54.4605 31.725 54.4433L31.8442 53.8969L31.5871 52.3606C31.4161 51.9681 31.5352 51.4217 31.279 51.1487L30.9203 50.8928C30.7665 50.6027 30.6979 50.193 30.766 49.971C30.9705 49.3051 30.7305 47.8712 30.5257 47.9055C30.0136 47.9912 30.3714 46.9837 30.3371 46.7788C30.4563 46.2324 30.1486 45.6522 30.1653 45.1229C30.2163 44.7985 30.455 44.3374 30.1135 44.184C29.9939 44.0987 29.9764 43.3646 30.0788 43.3475C30.1812 43.3303 30.2151 42.9035 30.1808 42.6987C29.8731 42.1184 30.0065 37.2527 29.9037 36.6382C29.9547 36.3138 29.8514 35.0676 30.0048 34.7261C30.1583 34.3845 31.0801 34.2302 31.0629 34.1278C31.2335 33.8887 32.1896 33.9393 32.3773 33.8026C32.8722 33.6145 34.2204 32.8624 34.6987 33.2035C34.9378 33.3741 35.1427 33.3398 35.1084 33.135C35.0741 32.9301 35.5352 33.1688 35.6205 33.0493C35.7058 32.9297 36.3203 32.8269 36.4227 32.8097C36.5594 32.9975 36.5251 32.7926 36.952 32.8265C37.4812 32.8432 37.9248 32.3478 38.0615 32.5355C38.0615 32.5355 38.4202 32.7914 38.5907 32.5522C38.676 32.4327 38.7103 32.6375 39.1881 32.347C39.4782 32.1931 39.6831 32.1589 39.9051 32.227C40.3319 32.2609 40.5877 31.9022 41.2366 32.0042C41.339 31.987 41.4414 31.9699 41.4243 31.8675C41.5777 31.5259 42.619 31.457 42.8239 31.4227C43.5237 31.2003 44.1382 31.0974 44.7185 30.7898C45.111 30.6188 45.9133 30.3792 45.5203 29.9186C45.486 29.7137 45.3665 29.6284 45.3322 29.4236C45.2294 28.8091 45.4338 28.1431 45.058 27.7848C44.6821 27.4266 43.8628 27.5637 43.2311 27.5641C42.9067 27.5131 42.6676 27.3425 42.3431 27.2915C41.8139 27.2748 40.1409 27.3442 38.8094 27.567C37.4608 27.6874 37.0682 27.8584 36.9487 27.7731C36.7095 27.6025 30.5642 28.6309 30.5299 28.4261C30.2386 26.6849 31.1257 25.6941 30.5107 25.1653C30.1349 24.807 29.6399 24.9951 29.6228 24.8927C29.5032 24.8074 28.3766 24.996 27.6425 25.0135C27.0108 25.0139 27.2499 25.1845 26.8402 25.2531C26.533 25.3045 26.3624 25.5436 26.1576 25.5779C26.0552 25.595 26.0552 25.595 26.0723 25.6974C26.0894 25.7999 26.0894 25.7999 25.9699 25.7146C25.6283 25.5612 25.1338 26.3809 25.0999 26.8078C25.015 27.559 24.6564 27.3032 24.7078 27.6104C24.7421 27.8153 24.5715 28.0544 24.4691 28.0715C24.4519 27.9691 24.0937 28.3449 24.2475 28.6351C24.4013 28.9252 24.2651 29.3692 24.2312 29.796C24.1973 30.2228 23.7362 29.9841 23.5314 30.0184C23.2241 30.0698 22.6267 30.2751 22.5072 30.1898C22.4729 29.9849 21.1757 30.4126 20.4416 30.4301C19.9123 30.4134 20.049 30.6011 19.6222 30.5673L18.5808 30.6362C17.5566 30.8076 16.1737 30.7232 15.7306 31.8502C15.6114 32.3966 15.6971 32.9087 15.8179 34.889C15.8012 35.4183 16.0575 35.6913 16.6891 35.6909C16.894 35.6566 17.0817 35.5199 17.389 35.4685C17.5938 35.4342 18.2598 35.6386 18.3108 35.3142C18.3789 35.0922 18.8567 34.8017 18.7886 35.0237C18.7204 35.2456 19.0449 35.2966 19.0277 35.1942C19.0959 34.9722 19.4717 35.3305 19.7447 35.0742C19.8299 34.9547 19.9324 34.9375 20.0519 35.0228C20.2739 35.091 20.6836 35.0224 20.6665 34.92C20.6493 34.8176 21.1786 34.8343 21.725 34.9534C22.0494 35.0044 22.1518 34.9873 22.1347 34.8849C22.2028 34.6629 22.2199 34.7653 22.732 34.6796C23.671 34.6278 23.6028 34.8498 23.6204 35.5839C23.5865 36.0107 23.6551 36.4204 23.6212 36.8472C23.6045 37.3765 23.5878 37.9057 23.6735 38.4178C23.7592 38.9299 23.6057 39.2715 23.4866 39.8179C23.385 41.0983 23.6931 42.3103 23.6768 43.4712C23.5923 44.8541 23.798 46.0831 23.816 47.4489C23.7993 47.9782 23.6801 48.5246 23.6634 49.0538C23.7834 49.7708 24.1082 50.4534 24.1086 51.0851C24.28 52.1093 24.2466 53.1678 24.5204 54.1749C24.6575 54.9943 24.8117 55.9161 25.1537 56.7012L25.2737 57.4181C25.4794 58.6472 25.8376 58.2714 25.6842 58.6129C25.6161 58.8349 25.7018 59.347 25.8213 59.4323C25.9237 59.4151 25.9409 59.5176 25.8727 59.7396C25.9584 60.2517 26.2486 60.0978 26.078 60.3369C25.8732 60.3712 26.4379 62.4878 26.6428 62.4535C26.7452 62.4364 26.7966 62.7437 26.6089 62.8804L26.6603 63.1876C26.8142 63.4777 27.4132 65.7992 27.5499 65.9869C27.7209 66.3794 27.9094 67.5061 28.0461 67.6938C28.1657 67.7791 28.5766 69.6055 28.8158 69.7761L29.021 70.3735L29.0553 70.5783C29.192 70.766 29.2948 71.3805 29.5168 71.4487C29.7388 71.5168 29.432 72.1999 29.7221 72.0461C29.9098 71.9094 29.9098 71.9094 29.9441 72.1142C29.9955 72.4215 30.064 72.8312 30.286 72.8993C30.4056 72.9846 30.4399 73.1894 30.3374 73.2066C30.235 73.2237 30.2522 73.3261 30.3717 73.4114C30.6108 73.582 30.6113 74.2137 30.8161 74.1794C31.1234 74.128 30.9361 74.8963 31.1409 74.8621C31.3458 74.8278 31.3805 75.6643 31.6024 75.7324C31.8244 75.8006 31.9787 76.7224 32.645 77.5585C32.9013 77.8315 32.8674 78.2583 33.5677 78.6676C33.6872 78.7529 33.7387 79.0601 33.9264 78.9234C33.9264 78.9234 34.0288 78.9063 34.0459 79.0087C33.9778 79.2307 34.1488 79.6232 34.2512 79.6061C34.456 79.5718 34.6951 79.7424 34.7123 79.8448C34.7808 80.2545 35.2081 80.92 35.4129 80.8857C35.4129 80.8857 35.6349 80.9539 35.874 81.1244C36.4547 81.4484 36.7448 81.2946 36.984 81.4652C37.1035 81.5504 37.2059 81.5333 37.3084 81.5162ZM30.3004 42.7839C30.2151 42.9035 30.4371 42.9716 30.4028 42.7668C30.3856 42.6644 30.2832 42.6815 30.3004 42.7839ZM52.505 52.3347C52.1806 52.2837 51.9248 52.6424 51.8738 52.9668C51.3111 54.0086 50.0837 56.7409 49.2819 57.6121C49.026 57.9708 48.7873 58.4319 48.429 58.8078C47.8321 59.6447 47.2522 60.584 46.5357 61.3357C45.9044 61.9678 45.6657 62.4289 45.6657 62.4289C45.5633 62.446 45.6829 62.5313 45.478 62.5656C45.3756 62.5827 44.6933 63.5392 44.5909 63.5564L44.1302 63.9493C44.1302 63.9493 44.0278 63.9665 43.6524 64.2399C42.1336 65.231 41.4505 64.9242 41.1261 64.8732C40.6993 64.8393 40.443 64.5663 40.1182 63.8837C39.9472 63.4911 39.6387 61.6475 39.7069 61.4255C39.8774 61.1864 39.4163 60.9477 40.0819 60.5205C40.5597 60.2299 40.4401 60.1446 40.645 60.1104C40.8498 60.0761 41.0032 59.7345 41.1057 59.7174C41.2081 59.7003 41.8736 59.273 41.9589 59.1535C42.0442 59.0339 42.1466 59.0168 42.4367 58.8629L42.7097 58.6066C42.795 58.4871 42.9656 58.248 43.068 58.2308C43.2728 58.1965 43.2214 57.8893 43.4263 57.855C43.4263 57.855 44.1428 57.1034 44.3134 56.8642C44.7226 56.164 44.9103 56.0273 44.8932 55.9249C44.8761 55.8225 45.746 54.7293 45.7117 54.5244C45.6946 54.422 45.8995 54.3877 45.8823 54.2853C45.8652 54.1829 45.9505 54.0633 46.0529 54.0462C46.2234 53.807 46.1549 53.3974 46.2402 53.2778L46.4107 53.0387C46.496 52.9191 46.3765 52.8338 46.4617 52.7143C46.5299 52.4923 46.4103 52.407 46.598 52.2703C46.7004 52.2532 46.5809 52.1679 46.7514 51.9288C46.7172 51.7239 46.6653 50.785 46.2895 50.4267C45.999 49.9489 46.1014 49.9317 45.8794 49.8636C45.555 49.8126 45.7598 49.7783 45.4354 49.7273L45.0939 49.5739C44.8719 49.5057 44.889 49.6082 44.5475 49.4547C44.3084 49.2842 44.206 49.3013 43.6938 49.387L42.994 49.6094C42.6868 49.6608 42.6696 49.5584 42.6696 49.5584L42.2599 49.627C40.6726 50.2085 41.0484 50.5667 40.6387 50.6353C40.4339 50.6696 40.1781 51.0283 40.0075 51.2674C40.0418 51.4722 39.7859 51.8309 39.5811 51.8652C39.4787 51.8823 36.1698 56.6476 36.7019 61.0861C37.0794 63.971 38.3093 65.0287 39.3172 66.0182C39.5564 66.1888 40.2909 66.8029 40.3933 66.7858C40.4957 66.7686 40.9568 67.0073 41.1788 67.0755C41.3836 67.0412 41.2984 67.1608 41.5032 67.1265L41.6228 67.2118C41.8447 67.2799 42.9885 67.1938 43.2958 67.1424C43.7736 66.8518 44.2857 66.7661 44.866 66.4584C45.2414 66.185 45.4634 66.2532 45.5487 66.1336L45.6339 66.0141C45.8388 65.9798 46.0946 65.6211 46.0775 65.5187L46.1799 65.5015C47.1699 65.1253 47.1013 64.7156 47.3914 64.5618C47.6815 64.4079 47.9374 64.0492 47.9203 63.9468C47.886 63.742 48.432 63.2295 48.483 62.905C49.7451 61.0092 50.4955 59.8307 50.8876 59.0281L51.2969 58.3278C51.6208 57.7472 53.7002 52.5559 52.505 52.3347ZM39.9268 58.3353C39.9096 58.2329 40.0121 58.2158 40.0631 57.8914C40.1141 57.567 40.3018 57.4303 40.2846 57.3278L40.3356 57.0034C40.5915 56.6447 40.5058 56.1326 40.7959 55.9788C40.8983 55.9616 40.9836 55.8421 41.0518 55.6201C41.0175 55.4153 41.188 55.1761 41.188 55.1761C41.3929 55.1419 42.0237 53.8781 42.0919 53.6561C42.1257 53.2293 42.2796 53.5194 42.3134 53.0926C42.3644 52.7682 42.6888 52.8192 42.6717 52.7168C42.6546 52.6143 42.7398 52.4948 42.9957 52.1361C43.2344 51.675 43.4564 51.7431 43.5417 51.6236L43.7637 51.6917C44.0881 51.7427 44.1223 51.9476 44.3443 52.0157L44.5663 52.0838L44.3109 53.0742C43.9702 54.1841 41.3088 57.1564 41.1211 57.2931L40.9506 57.5323C40.9677 57.6347 40.5242 58.1301 40.1316 58.301L39.9611 58.5402L39.9268 58.3353ZM60.8728 73.3612C61.18 73.3098 61.3506 73.0707 61.6407 72.9168C62.5964 72.3358 62.7331 72.5235 62.9208 72.3868C63.3815 71.9938 62.7837 71.5674 62.9371 71.2258C62.92 71.1234 63.0224 71.1063 63.0053 71.0039C62.8681 70.1845 62.902 69.7577 62.8849 69.6552C62.7653 69.57 62.9187 69.2284 62.8673 68.9211C62.7135 68.631 62.9183 68.5967 62.7988 68.5115C62.6792 68.4262 62.7816 68.409 62.6959 67.8969C62.5931 67.2824 62.7298 67.4701 62.5927 66.6507C62.5241 66.241 62.4727 65.9338 62.5751 65.9166C62.5408 65.7118 62.4213 65.6265 62.5065 65.5069L62.3866 64.79C62.4719 64.6704 62.4204 64.3632 62.3515 63.3218C62.3 63.0145 62.0764 60.4197 62.1617 60.3001L62.109 58.0979C62.0405 57.6882 62.2282 57.5515 62.1596 57.1418C62.1935 56.715 62.2788 56.5954 62.2445 56.3906L62.2273 56.2881C62.3126 56.1686 62.3465 55.7417 62.2269 55.6565C62.2269 55.6565 62.3975 55.4173 62.3803 55.3149C62.3803 55.3149 62.4823 54.6661 62.4481 54.4613C62.5162 54.2393 62.7884 52.7197 62.7712 52.6172C62.7541 52.5148 63.0442 52.361 62.9247 52.2757C62.8051 52.1904 63.0781 51.9342 62.9757 51.9513C62.9757 51.9513 63.1291 51.6098 63.1119 51.5073C63.0948 51.4049 63.1972 51.3878 63.3168 51.4731C63.3339 51.5755 63.5049 51.968 63.4025 51.9852C63.3001 52.0023 64.1746 57.8575 65.4555 58.5908C65.6946 58.7613 66.3957 60.4339 68.4951 59.7667C69.6046 59.4758 70.304 58.6217 70.1673 58.434C70.1502 58.3316 70.2526 58.3144 70.2526 58.3144C70.2183 58.1096 70.3889 57.8705 70.2693 57.7852C70.4742 57.7509 70.3885 57.2388 70.2342 56.317L70.2167 55.5829C70.0971 55.4976 70.0285 55.0879 70.0281 54.4563C70.0448 53.927 69.9767 54.149 69.9934 53.6198C70.0783 52.8685 69.9416 52.6808 70.0269 52.5613C70.1122 52.4417 70.1117 51.81 69.9579 51.5199C69.9236 51.3151 70.1456 51.3832 70.1113 51.1784C70.1113 51.1784 70.5361 48.0539 70.6042 47.8319C70.6895 47.7123 70.5699 47.627 70.6552 47.5075C70.6552 47.5075 70.6038 47.2002 70.7062 47.1831C70.8087 47.1659 70.723 46.6538 70.9441 45.4586C70.9951 45.1342 71.3362 44.656 71.2848 44.3487L71.5407 43.99C71.7794 43.5289 71.7451 43.3241 71.9499 43.2898C72.0524 43.2726 72.0009 42.9654 72.1886 42.8287C72.3764 42.692 72.2568 42.6067 72.3421 42.4871C72.5298 42.3504 72.3249 42.3847 72.3078 42.2823L72.4102 42.2652C72.5298 42.3504 72.5126 42.248 72.5979 42.1285C72.8709 41.8722 72.888 41.9746 72.9733 41.8551C73.0586 41.7355 73.0586 41.7355 73.161 41.7184C73.161 41.7184 73.2467 42.2305 73.1786 42.4524C73.1619 42.9817 73.1619 42.9817 73.2133 43.289C73.1451 43.5109 73.1451 43.5109 73.2476 43.4938C73.35 43.4767 73.3671 43.5791 73.2647 43.5962C73.077 43.7329 73.0611 45.5255 73.0611 45.5255L73.0444 46.0548C73.0787 46.2596 72.942 46.0719 73.0277 46.584C73.1305 47.1985 72.8742 46.9256 72.9257 47.2328C72.9257 47.2328 73.0113 47.7449 72.9261 47.8645C72.8408 47.9841 73.0799 48.1546 72.9775 48.1718C72.8751 48.1889 72.8922 48.2913 72.9093 48.3937C72.9436 48.5986 72.791 50.2035 72.962 50.596C72.962 50.596 73.0134 50.9033 73.1158 50.8862C72.911 50.9204 73.4105 57.6807 74.2479 58.9093C74.265 59.0118 74.3846 59.0971 74.4017 59.1995C74.5384 59.3872 74.4531 59.5067 74.4874 59.7116C74.5727 59.592 74.5556 59.4896 74.5384 59.3872C74.9151 61.0088 75.4615 61.1279 75.53 61.5376C75.5472 61.64 75.752 61.6058 75.6667 61.7253C75.6667 61.7253 76.6065 62.9368 76.7261 63.0221C76.7432 63.1245 76.8628 63.2098 76.8628 63.2098L76.8799 63.3122C76.9823 63.2951 76.9823 63.2951 77.1362 63.5852L77.4949 63.8411L77.8707 64.1993C77.8707 64.1993 78.1098 64.3699 78.1269 64.4723C78.1441 64.5748 78.1441 64.5748 78.5028 64.8306C78.8614 65.0865 79.4593 65.5129 79.7837 65.5639C80.0056 65.632 80.1081 65.6149 80.2448 65.8026C80.3643 65.8879 80.4668 65.8707 80.4668 65.8707L80.5692 65.8536C80.6887 65.9389 81.1156 65.9727 81.3204 65.9384C81.5081 65.8017 81.6448 65.9894 81.8497 65.9552C82.5666 65.8352 84.0172 65.066 83.7781 64.8954C83.6586 64.8101 83.8634 64.7759 83.8805 64.8783C83.8977 64.9807 83.983 64.8611 84.0682 64.7416C84.0511 64.6392 84.034 64.5367 84.2388 64.5025C84.3412 64.4853 84.3241 64.3829 84.307 64.2805C84.2898 64.1781 84.3751 64.0585 84.4604 63.9389C84.7162 63.5802 84.9031 62.1802 85.0565 61.8387C85.2609 61.1727 85.6021 60.6945 85.9261 60.1138C85.9261 60.1138 87.5088 52.5839 87.5251 51.423C87.5419 50.8937 87.0289 49.7161 86.2952 50.3653C86.0223 50.6216 86.0565 50.8264 85.58 53.012C83.5545 62.3006 83.0934 62.0619 82.6164 63.6158C82.5482 63.8378 82.4976 64.7938 82.0194 64.4527C81.6607 64.1969 81.4901 64.436 81.473 64.3336C81.4559 64.2311 81.4387 64.1287 81.3192 64.0434C80.9776 63.89 81.1653 63.7533 80.9605 63.7876C80.8581 63.8047 80.7214 63.617 80.7214 63.617C80.8066 63.4975 80.6528 63.2073 80.5504 63.2245C80.3455 63.2587 80.1403 62.6614 80.0207 62.5761L79.9864 62.3712C79.9693 62.2688 79.542 61.6033 79.3372 61.6376C79.2176 61.5523 79.2176 61.5523 79.3029 61.4327C79.2005 61.4498 79.2172 60.9206 79.0124 60.9549C78.7904 60.8867 78.9952 60.8525 78.8414 60.5623L78.5851 60.2893L78.568 60.1869C78.6533 60.0674 78.4823 59.6748 78.3627 59.5895L78.3456 59.4871C78.5162 59.248 78.2428 58.8726 78.1232 58.7873C77.7645 58.5314 77.6445 57.8145 77.4907 57.5244L77.4564 57.3195C77.5417 57.2 77.4221 57.1147 77.3197 57.1318C77.2173 57.149 77.2002 57.0465 77.3026 57.0294C77.3879 56.9098 77.3536 56.705 77.3364 56.6026C77.234 56.6197 76.9088 55.3054 76.7892 55.2201C76.6525 55.0324 76.7378 54.9128 76.7207 54.8104C76.6011 54.7251 76.6692 54.5031 76.6178 54.1959C76.4468 53.8033 76.6517 53.769 76.4297 53.7009L76.3954 53.496C76.4636 53.2741 76.3097 52.9839 76.3779 52.762C76.3775 52.1303 76.1898 52.267 76.2579 52.045C76.326 51.823 76.326 51.823 76.2236 51.8402C76.1212 51.8573 75.9845 51.6696 76.1893 51.6353C76.6162 51.6692 76.171 49.6379 76.2562 49.5183C76.3415 49.3988 76.1868 47.8453 76.2893 47.8281C76.3917 47.811 76.135 46.9063 76.2032 46.6844C76.2713 46.4624 76.1517 46.3771 76.2199 46.1551C76.3052 46.0356 76.288 45.9331 76.2709 45.8307C76.2533 45.0966 76.2362 44.9942 76.1338 45.0113C76.0313 45.0285 76.1166 44.9089 76.219 44.8918C76.3215 44.8746 76.3043 44.7722 76.2701 44.5674C76.1672 43.9528 76.3888 43.3893 76.4736 42.6381C76.5071 41.5796 76.3023 41.6139 76.3875 41.4943C76.49 41.4771 76.5067 40.9479 76.2504 40.6749C76.1309 40.5896 76.0966 40.3848 76.0966 40.3848C76.2329 39.9408 75.3449 39.6682 75.1401 39.7025C74.406 39.7201 73.6209 40.062 73.0235 40.2673L72.7162 40.3187C72.6481 40.5407 72.409 40.3701 71.7777 41.0022C71.2489 41.6172 70.5152 42.2664 70.2255 43.0519C70.0549 43.291 69.7991 43.6497 69.7652 44.0765C69.5947 44.3157 69.5094 44.4352 69.4412 44.6572C68.9467 45.477 67.7381 50.8385 67.9776 51.6407C68.1143 51.8284 67.9266 51.9651 67.9609 52.17C68.0123 52.4772 67.7393 52.7335 67.876 52.9212C68.0299 53.2113 67.8087 54.4065 67.8087 54.4065L67.843 54.6114C67.7406 54.6285 67.8091 55.0382 67.8605 55.3455C67.912 55.6527 67.7414 55.8918 67.7757 56.0967C67.81 56.3015 67.6222 56.4382 67.6394 56.5407L67.6051 56.3358C67.6561 56.0114 67.366 56.1652 67.1775 55.0386C67.126 54.7313 67.3313 55.3287 66.6465 52.4952C66.6123 52.2904 66.4751 51.471 66.3727 51.4881C66.3727 51.4881 66.3556 51.3857 66.4409 51.2661C66.5261 51.1466 66.2348 49.4054 66.2348 49.4054C65.9785 49.1324 66.0977 48.586 65.9781 48.5007C65.7561 48.4326 66.0634 48.3812 65.9267 48.1935C65.7047 48.1253 65.9948 47.9715 65.4484 47.8523C64.7825 47.6479 64.851 48.0576 64.5266 48.0066C64.3218 48.0409 64.1341 48.1776 64.0317 48.1947C63.9292 48.2119 62.7855 48.298 62.2566 48.9129L61.3185 50.2281C61.3357 50.3305 61.3699 50.5354 61.2675 50.5525C61.0798 50.6892 61.0288 51.0136 60.9268 51.6624C60.6371 52.4479 60.7224 52.3284 60.6542 52.5504C60.4665 52.6871 60.7056 52.8576 60.5694 53.3016L60.6036 53.5064C60.6036 53.5064 60.6208 53.6089 60.5184 53.626L60.4331 53.7456C60.4331 53.7456 60.4502 53.848 60.3478 53.8651C60.3649 53.9675 60.2797 54.0871 60.2968 54.1895C60.3482 54.4968 60.2458 54.5139 60.2291 55.0432C60.2123 55.5724 59.9222 55.7263 59.9736 56.0335C60.1103 56.2212 59.9055 56.2555 59.9569 56.5628C59.974 56.6652 59.974 56.6652 59.8888 56.7848C59.8888 56.7848 59.872 57.314 59.9916 57.3993C59.9916 57.3993 60.0259 57.6041 59.8725 57.9457C59.7872 58.0652 59.8043 58.1677 59.8557 58.4749C60.0439 58.9699 59.8047 58.7993 59.8733 59.209C59.9076 59.4139 59.7027 59.4482 59.737 59.653C59.7541 59.7554 59.6689 59.875 59.6003 59.4653C59.6003 59.4653 58.9498 56.8366 59.018 56.6146C59.0861 56.3926 58.5209 53.6444 58.5891 53.4224L58.452 52.603C58.4005 52.2958 58.4173 51.7665 58.2977 51.6812C58.1781 51.5959 58.2634 51.4764 58.2801 50.9471C58.2459 50.7423 58.2964 49.7862 58.1426 49.4961C58.023 49.4108 58.1765 49.0693 58.074 49.0864C57.9545 49.0011 58.0398 48.8815 58.0398 48.8815C57.9202 48.7963 57.9202 48.7963 58.0055 48.6767C58.0055 48.6767 57.8512 47.7549 57.9194 47.5329L57.7651 46.6111C57.6966 46.2014 57.6284 46.4234 57.6794 46.099C57.7647 45.9795 57.7476 45.877 57.7304 45.7746C57.6276 45.1601 57.7296 44.5113 57.61 44.426C57.5929 44.3236 57.6431 42.7358 57.5745 42.3261C57.506 41.9164 57.6598 42.2066 57.5398 41.4896C57.5227 41.3872 57.608 41.2676 57.608 41.2676C57.6761 41.0456 57.4708 40.4483 57.3341 40.2605C57.1974 40.0728 57.2656 39.8509 56.3095 39.8003C55.8827 39.7664 55.7803 39.7835 55.6778 39.8007C55.3367 40.2789 52.8953 40.161 53.0324 40.9804C53.0667 41.1853 53.0496 41.0828 52.7423 41.1342C52.6227 41.049 52.6399 41.1514 52.6399 41.1514C52.6741 41.3562 52.5717 41.3734 52.3669 41.4077L51.6842 41.7325C51.4794 41.7668 51.3941 41.8863 51.4626 42.296C51.4459 42.8253 51.6336 42.6886 51.5483 42.8081C51.2754 43.0644 51.6177 44.4811 51.5324 44.6007C51.4472 44.7203 51.6863 44.8908 51.6181 45.1128C51.4476 45.3519 51.619 46.3762 51.5337 46.4957C51.5508 46.5981 51.6704 46.6834 51.568 46.7006L51.6541 47.8443C51.7736 47.9296 51.7908 48.032 51.8251 48.2369C51.7741 48.5613 51.9618 48.4246 51.9279 48.8514L52.1344 51.3438C52.2368 51.3267 52.1862 52.2828 52.3058 52.368C52.4082 52.3509 52.4082 52.3509 52.3229 52.4705C52.2377 52.59 52.7176 55.4578 52.8371 55.5431C52.8371 55.5431 52.8885 55.8504 53.0424 56.1405C53.3852 58.189 53.4876 58.1718 53.4366 58.4962C53.4537 58.5987 53.3685 58.7182 53.5052 58.9059L53.7447 59.7082C53.557 59.8449 53.8814 59.8959 53.7961 60.0154C53.7108 60.135 53.9328 60.2031 53.8475 60.3227L53.8818 60.5275C53.8651 61.0568 54.1038 60.5957 54.2066 61.2102L54.2409 61.415C53.8651 61.0568 54.1046 61.859 54.3099 62.4564C54.5666 63.3611 54.4813 63.4806 54.8914 64.0437C55.0109 64.129 54.9257 64.2486 55.0966 64.6411L55.1652 65.0508C55.0628 65.068 55.0799 65.1704 55.2166 65.3581C55.439 66.0579 55.3876 65.7506 55.439 66.0579C55.5933 66.9797 55.6271 66.5529 55.9005 66.9283C55.9177 67.0307 56.0201 67.0136 56.0201 67.0136L56.3111 68.1231C56.3111 68.1231 56.8064 68.5666 56.6359 68.8057C56.5506 68.9253 56.6702 69.0106 56.7044 69.2154C56.7387 69.4203 56.8069 69.1983 56.8754 69.608C56.8416 70.0348 57.0464 70.0005 57.0807 70.2054C57.0978 70.3078 57.6956 70.7342 57.5932 70.7513C57.5932 70.7513 57.9009 71.3316 58.14 71.5022L58.2938 71.7923C58.3963 71.7751 58.6525 72.0481 58.5501 72.0653C58.4477 72.0824 58.9088 72.3211 58.9259 72.4235C58.9431 72.526 59.2846 72.6794 59.387 72.6622C59.4895 72.6451 59.5919 72.628 59.6262 72.8328C59.6776 73.1401 60.0873 73.0715 60.1215 73.2764C60.1215 73.2764 60.6679 73.3955 60.8728 73.3612Z" fill="#5493B2"/>
</svg>
